<?xml version="1.0" standalone="no"?><svg xmlns:xlink="http://www.w3.org/1999/xlink" xmlns="http://www.w3.org/2000/svg" viewBox="0 0 1000 625.0015053022767" preserveAspectRatio="xMaxYMax slice"><g transform="scale(1.20424182139167)"><rect x="0" y="0" width="830.4" height="519" fill="#ffffff"/><rect x="0" y="0" width="103.8" height="103.8" fill="#FACC14"/><g transform="translate(0,0) scale(5.1899999999999995) rotate(0)"><path d="M10 0L20 10L10 20L0 10L10 0Z" fill="#ffffff"/></g><rect x="103.8" y="0" width="103.8" height="103.8" fill="#ffffff"/><g transform="translate(103.8,0) scale(5.1899999999999995) rotate(0)"><path d="M10 1L12.2451 7.90983H19.5106L13.6327 12.1803L15.8779 19.0902L10 14.8197L4.12215 19.0902L6.36729 12.1803L0.489441 7.90983H7.75487L10 1Z" fill="#ffffff"/></g><rect x="207.6" y="0" width="103.8" height="103.8" fill="#ffffff"/><rect x="207.6" y="0" width="51.9" height="51.9" fill="#FACC14"/><g transform="translate(207.6,0) scale(2.5949999999999998) rotate(0)"><path d="M10 1L12.2451 7.90983H19.5106L13.6327 12.1803L15.8779 19.0902L10 14.8197L4.12215 19.0902L6.36729 12.1803L0.489441 7.90983H7.75487L10 1Z" fill="#FACC14"/></g><rect x="259.5" y="0" width="51.9" height="51.9" fill="#FACC14"/><g transform="translate(259.5,0) scale(2.5949999999999998) rotate(0)"><path d="M10 1L12.2451 7.90983H19.5106L13.6327 12.1803L15.8779 19.0902L10 14.8197L4.12215 19.0902L6.36729 12.1803L0.489441 7.90983H7.75487L10 1Z" fill="#ffffff"/></g><rect x="207.6" y="51.9" width="51.9" height="51.9" fill="#FACC14"/><g transform="translate(207.6,51.9) scale(2.5949999999999998) rotate(0)"><path d="M10 0L20 10L10 20L0 10L10 0Z" fill="#FACC14"/></g><rect x="259.5" y="51.9" width="51.9" height="51.9" fill="#ffffff"/><polygon points="259.5,51.9 311.4,103.8 259.5,103.8" fill="#ffffff"/><rect x="311.4" y="0" width="103.8" height="103.8" fill="#ffffff"/><rect x="311.4" y="0" width="51.9" height="51.9" fill="#ffffff"/><g transform="translate(311.4,0) scale(2.5949999999999998) rotate(0)"><path d="M10 0L20 10L10 20L0 10L10 0Z" fill="#ffffff"/></g><rect x="363.3" y="0" width="51.9" height="51.9" fill="#ffffff"/><g transform="translate(363.3,0) scale(2.5949999999999998) rotate(0)"><path d="M10 0L20 10L10 20L0 10L10 0Z" fill="#FACC14"/></g><rect x="311.4" y="51.9" width="51.9" height="51.9" fill="#ffffff"/><g transform="translate(311.4,51.9) scale(2.5949999999999998) rotate(0)"><path d="M10 1L12.2451 7.90983H19.5106L13.6327 12.1803L15.8779 19.0902L10 14.8197L4.12215 19.0902L6.36729 12.1803L0.489441 7.90983H7.75487L10 1Z" fill="#FACC14"/></g><rect x="363.3" y="51.9" width="51.9" height="51.9" fill="#FACC14"/><polygon points="363.3,51.9 415.2,103.8 363.3,103.8" fill="#ffffff"/><rect x="415.2" y="0" width="103.8" height="103.8" fill="#ffffff"/><polygon points="415.2,0 519,0 519,103.8" fill="#FACC14"/><rect x="519" y="0" width="103.8" height="103.8" fill="#ffffff"/><rect x="519" y="0" width="51.9" height="51.9" fill="#ffffff"/><polygon points="570.9,0 570.9,51.9 519,51.9" fill="#FACC14"/><rect x="570.9" y="0" width="51.9" height="51.9" fill="#FACC14"/><g transform="translate(570.9,0) scale(2.5949999999999998) rotate(0)"><path d="M10 0L20 10L10 20L0 10L10 0Z" fill="#FACC14"/></g><rect x="519" y="51.9" width="51.9" height="51.9" fill="#FACC14"/><g transform="translate(519,51.9) scale(2.5949999999999998) rotate(0)"><path d="M10 0L20 10L10 20L0 10L10 0Z" fill="#FACC14"/></g><rect x="570.9" y="51.9" width="51.9" height="51.9" fill="#ffffff"/><polygon points="570.9,51.9 622.8,103.8 570.9,103.8" fill="#FACC14"/><rect x="622.8" y="0" width="103.8" height="103.8" fill="#ffffff"/><g transform="translate(622.8,0) scale(5.1899999999999995) rotate(0)"><path d="M10 1L12.2451 7.90983H19.5106L13.6327 12.1803L15.8779 19.0902L10 14.8197L4.12215 19.0902L6.36729 12.1803L0.489441 7.90983H7.75487L10 1Z" fill="#FACC14"/></g><rect x="726.6" y="0" width="103.8" height="103.8" fill="#ffffff"/><rect x="726.6" y="0" width="51.9" height="51.9" fill="#ffffff"/><polygon points="726.6,0 778.5,0 778.5,51.9" fill="#FACC14"/><rect x="778.5" y="0" width="51.9" height="51.9" fill="#FACC14"/><g transform="translate(778.5,0) scale(2.5949999999999998) rotate(0)"><path d="M10 0L20 10L10 20L0 10L10 0Z" fill="#FACC14"/></g><rect x="726.6" y="51.9" width="51.9" height="51.9" fill="#FACC14"/><g transform="translate(726.6,51.9) scale(2.5949999999999998) rotate(0)"><path d="M10 0L20 10L10 20L0 10L10 0Z" fill="#FACC14"/></g><rect x="778.5" y="51.9" width="51.9" height="51.9" fill="#FACC14"/><g transform="translate(778.5,51.9) scale(2.5949999999999998) rotate(0)"><path d="M10 1L12.2451 7.90983H19.5106L13.6327 12.1803L15.8779 19.0902L10 14.8197L4.12215 19.0902L6.36729 12.1803L0.489441 7.90983H7.75487L10 1Z" fill="#ffffff"/></g><rect x="0" y="103.8" width="103.8" height="103.8" fill="#ffffff"/><rect x="0" y="103.8" width="51.9" height="51.9" fill="#ffffff"/><g transform="translate(0,103.8) scale(2.5949999999999998) rotate(0)"><path d="M10 1L12.2451 7.90983H19.5106L13.6327 12.1803L15.8779 19.0902L10 14.8197L4.12215 19.0902L6.36729 12.1803L0.489441 7.90983H7.75487L10 1Z" fill="#ffffff"/></g><rect x="51.9" y="103.8" width="51.9" height="51.9" fill="#ffffff"/><polygon points="51.9,103.8 103.8,155.7 51.9,155.7" fill="#ffffff"/><rect x="0" y="155.7" width="51.9" height="51.9" fill="#FACC14"/><polygon points="51.9,155.7 51.9,207.6 0,207.6" fill="#FACC14"/><rect x="51.9" y="155.7" width="51.9" height="51.9" fill="#ffffff"/><g transform="translate(51.9,155.7) scale(2.5949999999999998) rotate(0)"><path d="M10 0L20 10L10 20L0 10L10 0Z" fill="#FACC14"/></g><rect x="103.8" y="103.8" width="103.8" height="103.8" fill="#ffffff"/><rect x="103.8" y="103.8" width="51.9" height="51.9" fill="#ffffff"/><polygon points="103.8,103.8 155.7,155.7 103.8,155.7" fill="#FACC14"/><rect x="155.7" y="103.8" width="51.9" height="51.9" fill="#ffffff"/><g transform="translate(155.7,103.8) scale(2.5949999999999998) rotate(0)"><path d="M10 1L12.2451 7.90983H19.5106L13.6327 12.1803L15.8779 19.0902L10 14.8197L4.12215 19.0902L6.36729 12.1803L0.489441 7.90983H7.75487L10 1Z" fill="#FACC14"/></g><rect x="103.8" y="155.7" width="51.9" height="51.9" fill="#FACC14"/><g transform="translate(103.8,155.7) scale(2.5949999999999998) rotate(0)"><path d="M10 0L20 10L10 20L0 10L10 0Z" fill="#ffffff"/></g><rect x="155.7" y="155.7" width="51.9" height="51.9" fill="#ffffff"/><polygon points="155.7,155.7 207.6,155.7 207.6,207.6" fill="#FACC14"/><rect x="207.6" y="103.8" width="103.8" height="103.8" fill="#ffffff"/><rect x="207.6" y="103.8" width="51.9" height="51.9" fill="#ffffff"/><g transform="translate(207.6,103.8) scale(2.5949999999999998) rotate(0)"><path d="M10 0L20 10L10 20L0 10L10 0Z" fill="#FACC14"/></g><rect x="259.5" y="103.8" width="51.9" height="51.9" fill="#FACC14"/><g transform="translate(259.5,103.8) scale(2.5949999999999998) rotate(0)"><path d="M10 1L12.2451 7.90983H19.5106L13.6327 12.1803L15.8779 19.0902L10 14.8197L4.12215 19.0902L6.36729 12.1803L0.489441 7.90983H7.75487L10 1Z" fill="#ffffff"/></g><rect x="207.6" y="155.7" width="51.9" height="51.9" fill="#ffffff"/><g transform="translate(207.6,155.7) scale(2.5949999999999998) rotate(0)"><path d="M10 0L20 10L10 20L0 10L10 0Z" fill="#ffffff"/></g><rect x="259.5" y="155.7" width="51.9" height="51.9" fill="#ffffff"/><g transform="translate(259.5,155.7) scale(2.5949999999999998) rotate(0)"><path d="M10 0L20 10L10 20L0 10L10 0Z" fill="#FACC14"/></g><rect x="311.4" y="103.8" width="103.8" height="103.8" fill="#ffffff"/><rect x="311.4" y="103.8" width="51.9" height="51.9" fill="#ffffff"/><g transform="translate(311.4,103.8) scale(2.5949999999999998) rotate(0)"><path d="M10 1L12.2451 7.90983H19.5106L13.6327 12.1803L15.8779 19.0902L10 14.8197L4.12215 19.0902L6.36729 12.1803L0.489441 7.90983H7.75487L10 1Z" fill="#FACC14"/></g><rect x="363.3" y="103.8" width="51.9" height="51.9" fill="#FACC14"/><g transform="translate(363.3,103.8) scale(2.5949999999999998) rotate(0)"><path d="M10 0L20 10L10 20L0 10L10 0Z" fill="#FACC14"/></g><rect x="311.4" y="155.7" width="51.9" height="51.9" fill="#FACC14"/><polygon points="311.4,155.7 363.29999999999995,207.6 311.4,207.6" fill="#ffffff"/><rect x="363.3" y="155.7" width="51.9" height="51.9" fill="#FACC14"/><polygon points="415.2,155.7 415.2,207.6 363.3,207.6" fill="#FACC14"/><rect x="415.2" y="103.8" width="103.8" height="103.8" fill="#FACC14"/><polygon points="415.2,103.8 519,207.6 415.2,207.6" fill="#FACC14"/><rect x="519" y="103.8" width="103.8" height="103.8" fill="#FACC14"/><polygon points="519,103.8 622.8,103.8 519,207.6" fill="#ffffff"/><rect x="622.8" y="103.8" width="103.8" height="103.8" fill="#FACC14"/><polygon points="622.8,103.8 726.5999999999999,207.6 622.8,207.6" fill="#ffffff"/><rect x="726.6" y="103.8" width="103.8" height="103.8" fill="#FACC14"/><polygon points="726.6,103.8 830.4,207.6 726.6,207.6" fill="#FACC14"/><rect x="0" y="207.6" width="103.8" height="103.8" fill="#ffffff"/><polygon points="0,207.6 103.8,311.4 0,311.4" fill="#FACC14"/><rect x="103.8" y="207.6" width="103.8" height="103.8" fill="#ffffff"/><g transform="translate(103.8,207.6) scale(5.1899999999999995) rotate(0)"><path d="M10 0L20 10L10 20L0 10L10 0Z" fill="#FACC14"/></g><rect x="207.6" y="207.6" width="103.8" height="103.8" fill="#ffffff"/><rect x="207.6" y="207.6" width="51.9" height="51.9" fill="#FACC14"/><polygon points="259.5,207.6 259.5,259.5 207.6,259.5" fill="#FACC14"/><rect x="259.5" y="207.6" width="51.9" height="51.9" fill="#ffffff"/><g transform="translate(259.5,207.6) scale(2.5949999999999998) rotate(0)"><path d="M10 0L20 10L10 20L0 10L10 0Z" fill="#ffffff"/></g><rect x="207.6" y="259.5" width="51.9" height="51.9" fill="#FACC14"/><g transform="translate(207.6,259.5) scale(2.5949999999999998) rotate(0)"><path d="M10 1L12.2451 7.90983H19.5106L13.6327 12.1803L15.8779 19.0902L10 14.8197L4.12215 19.0902L6.36729 12.1803L0.489441 7.90983H7.75487L10 1Z" fill="#FACC14"/></g><rect x="259.5" y="259.5" width="51.9" height="51.9" fill="#ffffff"/><polygon points="259.5,259.5 311.4,311.4 259.5,311.4" fill="#FACC14"/><rect x="311.4" y="207.6" width="103.8" height="103.8" fill="#FACC14"/><polygon points="311.4,207.6 415.2,207.6 415.2,311.4" fill="#ffffff"/><rect x="415.2" y="207.6" width="103.8" height="103.8" fill="#ffffff"/><rect x="415.2" y="207.6" width="51.9" height="51.9" fill="#FACC14"/><g transform="translate(415.2,207.6) scale(2.5949999999999998) rotate(0)"><path d="M10 0L20 10L10 20L0 10L10 0Z" fill="#FACC14"/></g><rect x="467.1" y="207.6" width="51.9" height="51.9" fill="#FACC14"/><polygon points="467.1,207.6 519,259.5 467.1,259.5" fill="#FACC14"/><rect x="415.2" y="259.5" width="51.9" height="51.9" fill="#FACC14"/><polygon points="415.2,259.5 467.09999999999997,259.5 467.09999999999997,311.4" fill="#ffffff"/><rect x="467.1" y="259.5" width="51.9" height="51.9" fill="#FACC14"/><g transform="translate(467.1,259.5) scale(2.5949999999999998) rotate(0)"><path d="M10 1L12.2451 7.90983H19.5106L13.6327 12.1803L15.8779 19.0902L10 14.8197L4.12215 19.0902L6.36729 12.1803L0.489441 7.90983H7.75487L10 1Z" fill="#FACC14"/></g><rect x="519" y="207.6" width="103.8" height="103.8" fill="#ffffff"/><rect x="519" y="207.6" width="51.9" height="51.9" fill="#FACC14"/><polygon points="519,207.6 570.9,207.6 570.9,259.5" fill="#FACC14"/><rect x="570.9" y="207.6" width="51.9" height="51.9" fill="#FACC14"/><polygon points="570.9,207.6 622.8,207.6 622.8,259.5" fill="#ffffff"/><rect x="519" y="259.5" width="51.9" height="51.9" fill="#ffffff"/><g transform="translate(519,259.5) scale(2.5949999999999998) rotate(0)"><path d="M10 0L20 10L10 20L0 10L10 0Z" fill="#FACC14"/></g><rect x="570.9" y="259.5" width="51.9" height="51.9" fill="#ffffff"/><g transform="translate(570.9,259.5) scale(2.5949999999999998) rotate(0)"><path d="M10 0L20 10L10 20L0 10L10 0Z" fill="#FACC14"/></g><rect x="622.8" y="207.6" width="103.8" height="103.8" fill="#ffffff"/><rect x="622.8" y="207.6" width="51.9" height="51.9" fill="#ffffff"/><g transform="translate(622.8,207.6) scale(2.5949999999999998) rotate(0)"><path d="M10 0L20 10L10 20L0 10L10 0Z" fill="#ffffff"/></g><rect x="674.7" y="207.6" width="51.9" height="51.9" fill="#FACC14"/><g transform="translate(674.7,207.6) scale(2.5949999999999998) rotate(0)"><path d="M10 0L20 10L10 20L0 10L10 0Z" fill="#ffffff"/></g><rect x="622.8" y="259.5" width="51.9" height="51.9" fill="#ffffff"/><polygon points="622.8,259.5 674.6999999999999,259.5 622.8,311.4" fill="#FACC14"/><rect x="674.7" y="259.5" width="51.9" height="51.9" fill="#ffffff"/><g transform="translate(674.7,259.5) scale(2.5949999999999998) rotate(0)"><path d="M10 1L12.2451 7.90983H19.5106L13.6327 12.1803L15.8779 19.0902L10 14.8197L4.12215 19.0902L6.36729 12.1803L0.489441 7.90983H7.75487L10 1Z" fill="#ffffff"/></g><rect x="726.6" y="207.6" width="103.8" height="103.8" fill="#ffffff"/><rect x="726.6" y="207.6" width="51.9" height="51.9" fill="#FACC14"/><g transform="translate(726.6,207.6) scale(2.5949999999999998) rotate(0)"><path d="M10 0L20 10L10 20L0 10L10 0Z" fill="#ffffff"/></g><rect x="778.5" y="207.6" width="51.9" height="51.9" fill="#FACC14"/><polygon points="778.5,207.6 830.4,259.5 778.5,259.5" fill="#ffffff"/><rect x="726.6" y="259.5" width="51.9" height="51.9" fill="#FACC14"/><polygon points="726.6,259.5 778.5,311.4 726.6,311.4" fill="#ffffff"/><rect x="778.5" y="259.5" width="51.9" height="51.9" fill="#FACC14"/><polygon points="830.4,259.5 830.4,311.4 778.5,311.4" fill="#FACC14"/><rect x="0" y="311.4" width="103.8" height="103.8" fill="#ffffff"/><rect x="0" y="311.4" width="51.9" height="51.9" fill="#ffffff"/><polygon points="0,311.4 51.9,311.4 51.9,363.29999999999995" fill="#FACC14"/><rect x="51.9" y="311.4" width="51.9" height="51.9" fill="#FACC14"/><g transform="translate(51.9,311.4) scale(2.5949999999999998) rotate(0)"><path d="M10 0L20 10L10 20L0 10L10 0Z" fill="#ffffff"/></g><rect x="0" y="363.3" width="51.9" height="51.9" fill="#FACC14"/><g transform="translate(0,363.3) scale(2.5949999999999998) rotate(0)"><path d="M10 0L20 10L10 20L0 10L10 0Z" fill="#ffffff"/></g><rect x="51.9" y="363.3" width="51.9" height="51.9" fill="#ffffff"/><g transform="translate(51.9,363.3) scale(2.5949999999999998) rotate(0)"><path d="M10 1L12.2451 7.90983H19.5106L13.6327 12.1803L15.8779 19.0902L10 14.8197L4.12215 19.0902L6.36729 12.1803L0.489441 7.90983H7.75487L10 1Z" fill="#ffffff"/></g><rect x="103.8" y="311.4" width="103.8" height="103.8" fill="#ffffff"/><rect x="103.8" y="311.4" width="51.9" height="51.9" fill="#FACC14"/><polygon points="103.8,311.4 155.7,363.29999999999995 103.8,363.29999999999995" fill="#FACC14"/><rect x="155.7" y="311.4" width="51.9" height="51.9" fill="#FACC14"/><g transform="translate(155.7,311.4) scale(2.5949999999999998) rotate(0)"><path d="M10 0L20 10L10 20L0 10L10 0Z" fill="#ffffff"/></g><rect x="103.8" y="363.3" width="51.9" height="51.9" fill="#FACC14"/><g transform="translate(103.8,363.3) scale(2.5949999999999998) rotate(0)"><path d="M10 0L20 10L10 20L0 10L10 0Z" fill="#ffffff"/></g><rect x="155.7" y="363.3" width="51.9" height="51.9" fill="#ffffff"/><g transform="translate(155.7,363.3) scale(2.5949999999999998) rotate(0)"><path d="M10 1L12.2451 7.90983H19.5106L13.6327 12.1803L15.8779 19.0902L10 14.8197L4.12215 19.0902L6.36729 12.1803L0.489441 7.90983H7.75487L10 1Z" fill="#FACC14"/></g><rect x="207.6" y="311.4" width="103.8" height="103.8" fill="#FACC14"/><g transform="translate(207.6,311.4) scale(5.1899999999999995) rotate(0)"><path d="M10 1L12.2451 7.90983H19.5106L13.6327 12.1803L15.8779 19.0902L10 14.8197L4.12215 19.0902L6.36729 12.1803L0.489441 7.90983H7.75487L10 1Z" fill="#ffffff"/></g><rect x="311.4" y="311.4" width="103.8" height="103.8" fill="#ffffff"/><g transform="translate(311.4,311.4) scale(5.1899999999999995) rotate(0)"><path d="M10 0L20 10L10 20L0 10L10 0Z" fill="#FACC14"/></g><rect x="415.2" y="311.4" width="103.8" height="103.8" fill="#ffffff"/><rect x="415.2" y="311.4" width="51.9" height="51.9" fill="#FACC14"/><polygon points="467.09999999999997,311.4 467.09999999999997,363.29999999999995 415.2,363.29999999999995" fill="#FACC14"/><rect x="467.1" y="311.4" width="51.9" height="51.9" fill="#ffffff"/><g transform="translate(467.1,311.4) scale(2.5949999999999998) rotate(0)"><path d="M10 0L20 10L10 20L0 10L10 0Z" fill="#ffffff"/></g><rect x="415.2" y="363.3" width="51.9" height="51.9" fill="#ffffff"/><g transform="translate(415.2,363.3) scale(2.5949999999999998) rotate(0)"><path d="M10 1L12.2451 7.90983H19.5106L13.6327 12.1803L15.8779 19.0902L10 14.8197L4.12215 19.0902L6.36729 12.1803L0.489441 7.90983H7.75487L10 1Z" fill="#ffffff"/></g><rect x="467.1" y="363.3" width="51.9" height="51.9" fill="#FACC14"/><polygon points="519,363.3 519,415.2 467.1,415.2" fill="#ffffff"/><rect x="519" y="311.4" width="103.8" height="103.8" fill="#FACC14"/><g transform="translate(519,311.4) scale(5.1899999999999995) rotate(0)"><path d="M10 0L20 10L10 20L0 10L10 0Z" fill="#FACC14"/></g><rect x="622.8" y="311.4" width="103.8" height="103.8" fill="#ffffff"/><rect x="622.8" y="311.4" width="51.9" height="51.9" fill="#ffffff"/><polygon points="622.8,311.4 674.6999999999999,311.4 622.8,363.29999999999995" fill="#FACC14"/><rect x="674.7" y="311.4" width="51.9" height="51.9" fill="#ffffff"/><polygon points="674.7,311.4 726.6,311.4 674.7,363.29999999999995" fill="#ffffff"/><rect x="622.8" y="363.3" width="51.9" height="51.9" fill="#ffffff"/><polygon points="622.8,363.3 674.6999999999999,415.2 622.8,415.2" fill="#FACC14"/><rect x="674.7" y="363.3" width="51.9" height="51.9" fill="#FACC14"/><g transform="translate(674.7,363.3) scale(2.5949999999999998) rotate(0)"><path d="M10 1L12.2451 7.90983H19.5106L13.6327 12.1803L15.8779 19.0902L10 14.8197L4.12215 19.0902L6.36729 12.1803L0.489441 7.90983H7.75487L10 1Z" fill="#FACC14"/></g><rect x="726.6" y="311.4" width="103.8" height="103.8" fill="#ffffff"/><rect x="726.6" y="311.4" width="51.9" height="51.9" fill="#ffffff"/><polygon points="726.6,311.4 778.5,311.4 726.6,363.29999999999995" fill="#ffffff"/><rect x="778.5" y="311.4" width="51.9" height="51.9" fill="#FACC14"/><g transform="translate(778.5,311.4) scale(2.5949999999999998) rotate(0)"><path d="M10 1L12.2451 7.90983H19.5106L13.6327 12.1803L15.8779 19.0902L10 14.8197L4.12215 19.0902L6.36729 12.1803L0.489441 7.90983H7.75487L10 1Z" fill="#ffffff"/></g><rect x="726.6" y="363.3" width="51.9" height="51.9" fill="#ffffff"/><g transform="translate(726.6,363.3) scale(2.5949999999999998) rotate(0)"><path d="M10 0L20 10L10 20L0 10L10 0Z" fill="#FACC14"/></g><rect x="778.5" y="363.3" width="51.9" height="51.9" fill="#ffffff"/><g transform="translate(778.5,363.3) scale(2.5949999999999998) rotate(0)"><path d="M10 1L12.2451 7.90983H19.5106L13.6327 12.1803L15.8779 19.0902L10 14.8197L4.12215 19.0902L6.36729 12.1803L0.489441 7.90983H7.75487L10 1Z" fill="#ffffff"/></g><rect x="0" y="415.2" width="103.8" height="103.8" fill="#ffffff"/><rect x="0" y="415.2" width="51.9" height="51.9" fill="#ffffff"/><g transform="translate(0,415.2) scale(2.5949999999999998) rotate(0)"><path d="M10 1L12.2451 7.90983H19.5106L13.6327 12.1803L15.8779 19.0902L10 14.8197L4.12215 19.0902L6.36729 12.1803L0.489441 7.90983H7.75487L10 1Z" fill="#ffffff"/></g><rect x="51.9" y="415.2" width="51.9" height="51.9" fill="#FACC14"/><g transform="translate(51.9,415.2) scale(2.5949999999999998) rotate(0)"><path d="M10 1L12.2451 7.90983H19.5106L13.6327 12.1803L15.8779 19.0902L10 14.8197L4.12215 19.0902L6.36729 12.1803L0.489441 7.90983H7.75487L10 1Z" fill="#ffffff"/></g><rect x="0" y="467.1" width="51.9" height="51.9" fill="#FACC14"/><g transform="translate(0,467.1) scale(2.5949999999999998) rotate(0)"><path d="M10 1L12.2451 7.90983H19.5106L13.6327 12.1803L15.8779 19.0902L10 14.8197L4.12215 19.0902L6.36729 12.1803L0.489441 7.90983H7.75487L10 1Z" fill="#FACC14"/></g><rect x="51.9" y="467.1" width="51.9" height="51.9" fill="#ffffff"/><g transform="translate(51.9,467.1) scale(2.5949999999999998) rotate(0)"><path d="M10 1L12.2451 7.90983H19.5106L13.6327 12.1803L15.8779 19.0902L10 14.8197L4.12215 19.0902L6.36729 12.1803L0.489441 7.90983H7.75487L10 1Z" fill="#FACC14"/></g><rect x="103.8" y="415.2" width="103.8" height="103.8" fill="#FACC14"/><polygon points="103.8,415.2 207.6,519 103.8,519" fill="#FACC14"/><rect x="207.6" y="415.2" width="103.8" height="103.8" fill="#FACC14"/><polygon points="311.4,415.2 311.4,519 207.6,519" fill="#FACC14"/><rect x="311.4" y="415.2" width="103.8" height="103.8" fill="#FACC14"/><g transform="translate(311.4,415.2) scale(5.1899999999999995) rotate(0)"><path d="M10 0L20 10L10 20L0 10L10 0Z" fill="#ffffff"/></g><rect x="415.2" y="415.2" width="103.8" height="103.8" fill="#ffffff"/><rect x="415.2" y="415.2" width="51.9" height="51.9" fill="#FACC14"/><polygon points="467.09999999999997,415.2 467.09999999999997,467.09999999999997 415.2,467.09999999999997" fill="#ffffff"/><rect x="467.1" y="415.2" width="51.9" height="51.9" fill="#FACC14"/><g transform="translate(467.1,415.2) scale(2.5949999999999998) rotate(0)"><path d="M10 0L20 10L10 20L0 10L10 0Z" fill="#FACC14"/></g><rect x="415.2" y="467.1" width="51.9" height="51.9" fill="#FACC14"/><polygon points="467.09999999999997,467.1 467.09999999999997,519 415.2,519" fill="#FACC14"/><rect x="467.1" y="467.1" width="51.9" height="51.9" fill="#ffffff"/><polygon points="467.1,467.1 519,467.1 519,519" fill="#FACC14"/><rect x="519" y="415.2" width="103.8" height="103.8" fill="#ffffff"/><g transform="translate(519,415.2) scale(5.1899999999999995) rotate(0)"><path d="M10 0L20 10L10 20L0 10L10 0Z" fill="#FACC14"/></g><rect x="622.8" y="415.2" width="103.8" height="103.8" fill="#ffffff"/><rect x="622.8" y="415.2" width="51.9" height="51.9" fill="#ffffff"/><g transform="translate(622.8,415.2) scale(2.5949999999999998) rotate(0)"><path d="M10 0L20 10L10 20L0 10L10 0Z" fill="#FACC14"/></g><rect x="674.7" y="415.2" width="51.9" height="51.9" fill="#FACC14"/><g transform="translate(674.7,415.2) scale(2.5949999999999998) rotate(0)"><path d="M10 1L12.2451 7.90983H19.5106L13.6327 12.1803L15.8779 19.0902L10 14.8197L4.12215 19.0902L6.36729 12.1803L0.489441 7.90983H7.75487L10 1Z" fill="#FACC14"/></g><rect x="622.8" y="467.1" width="51.9" height="51.9" fill="#FACC14"/><g transform="translate(622.8,467.1) scale(2.5949999999999998) rotate(0)"><path d="M10 1L12.2451 7.90983H19.5106L13.6327 12.1803L15.8779 19.0902L10 14.8197L4.12215 19.0902L6.36729 12.1803L0.489441 7.90983H7.75487L10 1Z" fill="#ffffff"/></g><rect x="674.7" y="467.1" width="51.9" height="51.9" fill="#ffffff"/><g transform="translate(674.7,467.1) scale(2.5949999999999998) rotate(0)"><path d="M10 1L12.2451 7.90983H19.5106L13.6327 12.1803L15.8779 19.0902L10 14.8197L4.12215 19.0902L6.36729 12.1803L0.489441 7.90983H7.75487L10 1Z" fill="#ffffff"/></g><rect x="726.6" y="415.2" width="103.8" height="103.8" fill="#ffffff"/><polygon points="830.4,415.2 830.4,519 726.6,519" fill="#ffffff"/></g></svg>