<?xml version="1.0" standalone="no"?><svg xmlns:xlink="http://www.w3.org/1999/xlink" xmlns="http://www.w3.org/2000/svg" viewBox="0 0 1000 625.0042275718856" preserveAspectRatio="xMaxYMax slice"><g transform="scale(1.3528230034023498)"><rect x="0" y="0" width="739.2" height="462" fill="#ffffff"/><rect x="0" y="0" width="92.4" height="92.4" fill="#fdedae"/><g transform="translate(0,0) scale(4.62) rotate(0)"><path d="M10 0L20 10L10 20L0 10L10 0Z" fill="#ffffff"/></g><rect x="92.4" y="0" width="92.4" height="92.4" fill="#ffffff"/><rect x="92.4" y="0" width="46.2" height="46.2" fill="#ffffff"/><g transform="translate(92.4,0) scale(2.31) rotate(0)"><path d="M10 1L12.2451 7.90983H19.5106L13.6327 12.1803L15.8779 19.0902L10 14.8197L4.12215 19.0902L6.36729 12.1803L0.489441 7.90983H7.75487L10 1Z" fill="#fcdc5f"/></g><rect x="138.6" y="0" width="46.2" height="46.2" fill="#fef4cd"/><g transform="translate(138.6,0) scale(2.31) rotate(0)"><path d="M10 1L12.2451 7.90983H19.5106L13.6327 12.1803L15.8779 19.0902L10 14.8197L4.12215 19.0902L6.36729 12.1803L0.489441 7.90983H7.75487L10 1Z" fill="#ffffff"/></g><rect x="92.4" y="46.2" width="46.2" height="46.2" fill="#fcdf6a"/><g transform="translate(92.4,46.2) scale(2.31) rotate(0)"><path d="M10 0L20 10L10 20L0 10L10 0Z" fill="#ffffff"/></g><rect x="138.6" y="46.2" width="46.2" height="46.2" fill="#ffffff"/><g transform="translate(138.6,46.2) scale(2.31) rotate(0)"><path d="M10 0L20 10L10 20L0 10L10 0Z" fill="#fdeeb1"/></g><rect x="184.8" y="0" width="92.4" height="92.4" fill="#ffffff"/><rect x="184.8" y="0" width="46.2" height="46.2" fill="#ffffff"/><g transform="translate(184.8,0) scale(2.31) rotate(0)"><path d="M10 1L12.2451 7.90983H19.5106L13.6327 12.1803L15.8779 19.0902L10 14.8197L4.12215 19.0902L6.36729 12.1803L0.489441 7.90983H7.75487L10 1Z" fill="#fbd84a"/></g><rect x="231" y="0" width="46.2" height="46.2" fill="#ffffff"/><polygon points="231,0 277.2,0 231,46.2" fill="#ffffff"/><rect x="184.8" y="46.2" width="46.2" height="46.2" fill="#ffffff"/><g transform="translate(184.8,46.2) scale(2.31) rotate(0)"><path d="M10 0L20 10L10 20L0 10L10 0Z" fill="#ffffff"/></g><rect x="231" y="46.2" width="46.2" height="46.2" fill="#fbd230"/><g transform="translate(231,46.2) scale(2.31) rotate(0)"><path d="M10 1L12.2451 7.90983H19.5106L13.6327 12.1803L15.8779 19.0902L10 14.8197L4.12215 19.0902L6.36729 12.1803L0.489441 7.90983H7.75487L10 1Z" fill="#ffffff"/></g><rect x="277.20000000000005" y="0" width="92.4" height="92.4" fill="#ffffff"/><rect x="277.2" y="0" width="46.2" height="46.2" fill="#ffffff"/><g transform="translate(277.2,0) scale(2.31) rotate(0)"><path d="M10 1L12.2451 7.90983H19.5106L13.6327 12.1803L15.8779 19.0902L10 14.8197L4.12215 19.0902L6.36729 12.1803L0.489441 7.90983H7.75487L10 1Z" fill="#fdedae"/></g><rect x="323.4" y="0" width="46.2" height="46.2" fill="#fef9e2"/><polygon points="323.4,0 369.59999999999997,0 369.59999999999997,46.2" fill="#ffffff"/><rect x="277.2" y="46.2" width="46.2" height="46.2" fill="#fbda54"/><polygon points="277.2,46.2 323.4,46.2 277.2,92.4" fill="#ffffff"/><rect x="323.4" y="46.2" width="46.2" height="46.2" fill="#fce27b"/><g transform="translate(323.4,46.2) scale(2.31) rotate(0)"><path d="M10 1L12.2451 7.90983H19.5106L13.6327 12.1803L15.8779 19.0902L10 14.8197L4.12215 19.0902L6.36729 12.1803L0.489441 7.90983H7.75487L10 1Z" fill="#ffffff"/></g><rect x="369.6" y="0" width="92.4" height="92.4" fill="#ffffff"/><rect x="369.6" y="0" width="46.2" height="46.2" fill="#ffffff"/><polygon points="369.6,0 415.8,0 415.8,46.2" fill="#ffffff"/><rect x="415.8" y="0" width="46.2" height="46.2" fill="#ffffff"/><g transform="translate(415.8,0) scale(2.31) rotate(0)"><path d="M10 0L20 10L10 20L0 10L10 0Z" fill="#fef0bc"/></g><rect x="369.6" y="46.2" width="46.2" height="46.2" fill="#fdeca6"/><g transform="translate(369.6,46.2) scale(2.31) rotate(0)"><path d="M10 0L20 10L10 20L0 10L10 0Z" fill="#ffffff"/></g><rect x="415.8" y="46.2" width="46.2" height="46.2" fill="#fdefb7"/><g transform="translate(415.8,46.2) scale(2.31) rotate(0)"><path d="M10 1L12.2451 7.90983H19.5106L13.6327 12.1803L15.8779 19.0902L10 14.8197L4.12215 19.0902L6.36729 12.1803L0.489441 7.90983H7.75487L10 1Z" fill="#fdeaa0"/></g><rect x="462" y="0" width="92.4" height="92.4" fill="#ffffff"/><rect x="462" y="0" width="46.2" height="46.2" fill="#ffffff"/><g transform="translate(462,0) scale(2.31) rotate(0)"><path d="M10 0L20 10L10 20L0 10L10 0Z" fill="#fce277"/></g><rect x="508.2" y="0" width="46.2" height="46.2" fill="#fcdd64"/><polygon points="508.2,0 554.4,0 554.4,46.2" fill="#fbd22e"/><rect x="462" y="46.2" width="46.2" height="46.2" fill="#ffffff"/><g transform="translate(462,46.2) scale(2.31) rotate(0)"><path d="M10 0L20 10L10 20L0 10L10 0Z" fill="#ffffff"/></g><rect x="508.2" y="46.2" width="46.2" height="46.2" fill="#ffffff"/><polygon points="508.2,46.2 554.4,46.2 554.4,92.4" fill="#fef2c4"/><rect x="554.4" y="0" width="92.4" height="92.4" fill="#fffefa"/><g transform="translate(554.4,0) scale(4.62) rotate(0)"><path d="M10 0L20 10L10 20L0 10L10 0Z" fill="#fcde68"/></g><rect x="646.8000000000001" y="0" width="92.4" height="92.4" fill="#ffffff"/><rect x="646.8" y="0" width="46.2" height="46.2" fill="#facc16"/><g transform="translate(646.8,0) scale(2.31) rotate(0)"><path d="M10 0L20 10L10 20L0 10L10 0Z" fill="#ffffff"/></g><rect x="693" y="0" width="46.2" height="46.2" fill="#ffffff"/><g transform="translate(693,0) scale(2.31) rotate(0)"><path d="M10 0L20 10L10 20L0 10L10 0Z" fill="#fbda54"/></g><rect x="646.8" y="46.2" width="46.2" height="46.2" fill="#ffffff"/><g transform="translate(646.8,46.2) scale(2.31) rotate(0)"><path d="M10 1L12.2451 7.90983H19.5106L13.6327 12.1803L15.8779 19.0902L10 14.8197L4.12215 19.0902L6.36729 12.1803L0.489441 7.90983H7.75487L10 1Z" fill="#fef2c4"/></g><rect x="693" y="46.2" width="46.2" height="46.2" fill="#ffffff"/><g transform="translate(693,46.2) scale(2.31) rotate(0)"><path d="M10 1L12.2451 7.90983H19.5106L13.6327 12.1803L15.8779 19.0902L10 14.8197L4.12215 19.0902L6.36729 12.1803L0.489441 7.90983H7.75487L10 1Z" fill="#fef7d9"/></g><rect x="0" y="92.4" width="92.4" height="92.4" fill="#ffffff"/><rect x="0" y="92.4" width="46.2" height="46.2" fill="#ffffff"/><g transform="translate(0,92.4) scale(2.31) rotate(0)"><path d="M10 0L20 10L10 20L0 10L10 0Z" fill="#face1c"/></g><rect x="46.2" y="92.4" width="46.2" height="46.2" fill="#fbd951"/><g transform="translate(46.2,92.4) scale(2.31) rotate(0)"><path d="M10 1L12.2451 7.90983H19.5106L13.6327 12.1803L15.8779 19.0902L10 14.8197L4.12215 19.0902L6.36729 12.1803L0.489441 7.90983H7.75487L10 1Z" fill="#ffffff"/></g><rect x="0" y="138.6" width="46.2" height="46.2" fill="#fffdf4"/><polygon points="0,138.6 46.2,138.6 46.2,184.8" fill="#ffffff"/><rect x="46.2" y="138.6" width="46.2" height="46.2" fill="#ffffff"/><g transform="translate(46.2,138.6) scale(2.31) rotate(0)"><path d="M10 0L20 10L10 20L0 10L10 0Z" fill="#ffffff"/></g><rect x="92.4" y="92.4" width="92.4" height="92.4" fill="#ffffff"/><rect x="92.4" y="92.4" width="46.2" height="46.2" fill="#facf23"/><g transform="translate(92.4,92.4) scale(2.31) rotate(0)"><path d="M10 1L12.2451 7.90983H19.5106L13.6327 12.1803L15.8779 19.0902L10 14.8197L4.12215 19.0902L6.36729 12.1803L0.489441 7.90983H7.75487L10 1Z" fill="#fcdf6e"/></g><rect x="138.6" y="92.4" width="46.2" height="46.2" fill="#fef2c5"/><g transform="translate(138.6,92.4) scale(2.31) rotate(0)"><path d="M10 1L12.2451 7.90983H19.5106L13.6327 12.1803L15.8779 19.0902L10 14.8197L4.12215 19.0902L6.36729 12.1803L0.489441 7.90983H7.75487L10 1Z" fill="#fbd230"/></g><rect x="92.4" y="138.6" width="46.2" height="46.2" fill="#ffffff"/><g transform="translate(92.4,138.6) scale(2.31) rotate(0)"><path d="M10 1L12.2451 7.90983H19.5106L13.6327 12.1803L15.8779 19.0902L10 14.8197L4.12215 19.0902L6.36729 12.1803L0.489441 7.90983H7.75487L10 1Z" fill="#fbd332"/></g><rect x="138.6" y="138.6" width="46.2" height="46.2" fill="#ffffff"/><polygon points="138.6,138.6 184.8,138.6 138.6,184.8" fill="#fce588"/><rect x="184.8" y="92.4" width="92.4" height="92.4" fill="#ffffff"/><rect x="184.8" y="92.4" width="46.2" height="46.2" fill="#ffffff"/><g transform="translate(184.8,92.4) scale(2.31) rotate(0)"><path d="M10 1L12.2451 7.90983H19.5106L13.6327 12.1803L15.8779 19.0902L10 14.8197L4.12215 19.0902L6.36729 12.1803L0.489441 7.90983H7.75487L10 1Z" fill="#ffffff"/></g><rect x="231" y="92.4" width="46.2" height="46.2" fill="#ffffff"/><g transform="translate(231,92.4) scale(2.31) rotate(0)"><path d="M10 1L12.2451 7.90983H19.5106L13.6327 12.1803L15.8779 19.0902L10 14.8197L4.12215 19.0902L6.36729 12.1803L0.489441 7.90983H7.75487L10 1Z" fill="#ffffff"/></g><rect x="184.8" y="138.6" width="46.2" height="46.2" fill="#ffffff"/><polygon points="231,138.6 231,184.8 184.8,184.8" fill="#fcdf69"/><rect x="231" y="138.6" width="46.2" height="46.2" fill="#fde99b"/><g transform="translate(231,138.6) scale(2.31) rotate(0)"><path d="M10 0L20 10L10 20L0 10L10 0Z" fill="#fef4cb"/></g><rect x="277.20000000000005" y="92.4" width="92.4" height="92.4" fill="#ffffff"/><rect x="277.2" y="92.4" width="46.2" height="46.2" fill="#ffffff"/><polygon points="277.2,92.4 323.4,92.4 277.2,138.60000000000002" fill="#fffdf6"/><rect x="323.4" y="92.4" width="46.2" height="46.2" fill="#ffffff"/><g transform="translate(323.4,92.4) scale(2.31) rotate(0)"><path d="M10 1L12.2451 7.90983H19.5106L13.6327 12.1803L15.8779 19.0902L10 14.8197L4.12215 19.0902L6.36729 12.1803L0.489441 7.90983H7.75487L10 1Z" fill="#fbd53c"/></g><rect x="277.2" y="138.6" width="46.2" height="46.2" fill="#fef5d3"/><g transform="translate(277.2,138.6) scale(2.31) rotate(0)"><path d="M10 1L12.2451 7.90983H19.5106L13.6327 12.1803L15.8779 19.0902L10 14.8197L4.12215 19.0902L6.36729 12.1803L0.489441 7.90983H7.75487L10 1Z" fill="#ffffff"/></g><rect x="323.4" y="138.6" width="46.2" height="46.2" fill="#fce37f"/><polygon points="369.59999999999997,138.6 369.59999999999997,184.8 323.4,184.8" fill="#ffffff"/><rect x="369.6" y="92.4" width="92.4" height="92.4" fill="#fcdf6a"/><g transform="translate(369.6,92.4) scale(4.62) rotate(0)"><path d="M10 1L12.2451 7.90983H19.5106L13.6327 12.1803L15.8779 19.0902L10 14.8197L4.12215 19.0902L6.36729 12.1803L0.489441 7.90983H7.75487L10 1Z" fill="#fef9e4"/></g><rect x="462" y="92.4" width="92.4" height="92.4" fill="#ffffff"/><polygon points="554.4,92.4 554.4,184.8 462,184.8" fill="#ffffff"/><rect x="554.4" y="92.4" width="92.4" height="92.4" fill="#ffffff"/><g transform="translate(554.4,92.4) scale(4.62) rotate(0)"><path d="M10 1L12.2451 7.90983H19.5106L13.6327 12.1803L15.8779 19.0902L10 14.8197L4.12215 19.0902L6.36729 12.1803L0.489441 7.90983H7.75487L10 1Z" fill="#fcdd61"/></g><rect x="646.8000000000001" y="92.4" width="92.4" height="92.4" fill="#ffffff"/><rect x="646.8" y="92.4" width="46.2" height="46.2" fill="#ffffff"/><g transform="translate(646.8,92.4) scale(2.31) rotate(0)"><path d="M10 0L20 10L10 20L0 10L10 0Z" fill="#ffffff"/></g><rect x="693" y="92.4" width="46.2" height="46.2" fill="#fbda57"/><polygon points="693,92.4 739.2,138.60000000000002 693,138.60000000000002" fill="#fbd53c"/><rect x="646.8" y="138.6" width="46.2" height="46.2" fill="#fef2c4"/><polygon points="646.8,138.6 693,138.6 646.8,184.8" fill="#fdf0b8"/><rect x="693" y="138.6" width="46.2" height="46.2" fill="#fffdf6"/><g transform="translate(693,138.6) scale(2.31) rotate(0)"><path d="M10 1L12.2451 7.90983H19.5106L13.6327 12.1803L15.8779 19.0902L10 14.8197L4.12215 19.0902L6.36729 12.1803L0.489441 7.90983H7.75487L10 1Z" fill="#fbd745"/></g><rect x="0" y="184.8" width="92.4" height="92.4" fill="#ffffff"/><rect x="0" y="184.8" width="46.2" height="46.2" fill="#fef9e3"/><g transform="translate(0,184.8) scale(2.31) rotate(0)"><path d="M10 0L20 10L10 20L0 10L10 0Z" fill="#ffffff"/></g><rect x="46.2" y="184.8" width="46.2" height="46.2" fill="#fce588"/><polygon points="46.2,184.8 92.4,231 46.2,231" fill="#fbd332"/><rect x="0" y="231" width="46.2" height="46.2" fill="#fef0b9"/><g transform="translate(0,231) scale(2.31) rotate(0)"><path d="M10 0L20 10L10 20L0 10L10 0Z" fill="#facd19"/></g><rect x="46.2" y="231" width="46.2" height="46.2" fill="#fbd640"/><polygon points="46.2,231 92.4,277.2 46.2,277.2" fill="#ffffff"/><rect x="92.4" y="184.8" width="92.4" height="92.4" fill="#ffffff"/><rect x="92.4" y="184.8" width="46.2" height="46.2" fill="#fbd94f"/><g transform="translate(92.4,184.8) scale(2.31) rotate(0)"><path d="M10 0L20 10L10 20L0 10L10 0Z" fill="#fce485"/></g><rect x="138.6" y="184.8" width="46.2" height="46.2" fill="#ffffff"/><g transform="translate(138.6,184.8) scale(2.31) rotate(0)"><path d="M10 1L12.2451 7.90983H19.5106L13.6327 12.1803L15.8779 19.0902L10 14.8197L4.12215 19.0902L6.36729 12.1803L0.489441 7.90983H7.75487L10 1Z" fill="#fef3c8"/></g><rect x="92.4" y="231" width="46.2" height="46.2" fill="#ffffff"/><g transform="translate(92.4,231) scale(2.31) rotate(0)"><path d="M10 1L12.2451 7.90983H19.5106L13.6327 12.1803L15.8779 19.0902L10 14.8197L4.12215 19.0902L6.36729 12.1803L0.489441 7.90983H7.75487L10 1Z" fill="#fef8de"/></g><rect x="138.6" y="231" width="46.2" height="46.2" fill="#ffffff"/><polygon points="184.8,231 184.8,277.2 138.6,277.2" fill="#fce27b"/><rect x="184.8" y="184.8" width="92.4" height="92.4" fill="#ffffff"/><rect x="184.8" y="184.8" width="46.2" height="46.2" fill="#fef5cf"/><polygon points="184.8,184.8 231,184.8 231,231" fill="#ffffff"/><rect x="231" y="184.8" width="46.2" height="46.2" fill="#fbd84b"/><g transform="translate(231,184.8) scale(2.31) rotate(0)"><path d="M10 1L12.2451 7.90983H19.5106L13.6327 12.1803L15.8779 19.0902L10 14.8197L4.12215 19.0902L6.36729 12.1803L0.489441 7.90983H7.75487L10 1Z" fill="#fef1bf"/></g><rect x="184.8" y="231" width="46.2" height="46.2" fill="#fef7dc"/><polygon points="184.8,231 231,231 231,277.2" fill="#fdeaa0"/><rect x="231" y="231" width="46.2" height="46.2" fill="#ffffff"/><polygon points="231,231 277.2,277.2 231,277.2" fill="#ffffff"/><rect x="277.20000000000005" y="184.8" width="92.4" height="92.4" fill="#ffffff"/><rect x="277.2" y="184.8" width="46.2" height="46.2" fill="#fad027"/><polygon points="277.2,184.8 323.4,231 277.2,231" fill="#ffffff"/><rect x="323.4" y="184.8" width="46.2" height="46.2" fill="#facd1a"/><g transform="translate(323.4,184.8) scale(2.31) rotate(0)"><path d="M10 0L20 10L10 20L0 10L10 0Z" fill="#fcdc5c"/></g><rect x="277.2" y="231" width="46.2" height="46.2" fill="#ffffff"/><polygon points="277.2,231 323.4,231 277.2,277.2" fill="#ffffff"/><rect x="323.4" y="231" width="46.2" height="46.2" fill="#ffffff"/><polygon points="323.4,231 369.59999999999997,231 369.59999999999997,277.2" fill="#ffffff"/><rect x="369.6" y="184.8" width="92.4" height="92.4" fill="#ffffff"/><polygon points="369.6,184.8 462,184.8 369.6,277.20000000000005" fill="#ffffff"/><rect x="462" y="184.8" width="92.4" height="92.4" fill="#ffffff"/><g transform="translate(462,184.8) scale(4.62) rotate(0)"><path d="M10 1L12.2451 7.90983H19.5106L13.6327 12.1803L15.8779 19.0902L10 14.8197L4.12215 19.0902L6.36729 12.1803L0.489441 7.90983H7.75487L10 1Z" fill="#ffffff"/></g><rect x="554.4" y="184.8" width="92.4" height="92.4" fill="#ffffff"/><g transform="translate(554.4,184.8) scale(4.62) rotate(0)"><path d="M10 1L12.2451 7.90983H19.5106L13.6327 12.1803L15.8779 19.0902L10 14.8197L4.12215 19.0902L6.36729 12.1803L0.489441 7.90983H7.75487L10 1Z" fill="#fbda52"/></g><rect x="646.8000000000001" y="184.8" width="92.4" height="92.4" fill="#ffffff"/><rect x="646.8" y="184.8" width="46.2" height="46.2" fill="#ffffff"/><polygon points="646.8,184.8 693,184.8 646.8,231" fill="#fef5d2"/><rect x="693" y="184.8" width="46.2" height="46.2" fill="#fbd94f"/><polygon points="693,184.8 739.2,231 693,231" fill="#fffbee"/><rect x="646.8" y="231" width="46.2" height="46.2" fill="#fef9e5"/><g transform="translate(646.8,231) scale(2.31) rotate(0)"><path d="M10 0L20 10L10 20L0 10L10 0Z" fill="#facd17"/></g><rect x="693" y="231" width="46.2" height="46.2" fill="#fdeba3"/><g transform="translate(693,231) scale(2.31) rotate(0)"><path d="M10 1L12.2451 7.90983H19.5106L13.6327 12.1803L15.8779 19.0902L10 14.8197L4.12215 19.0902L6.36729 12.1803L0.489441 7.90983H7.75487L10 1Z" fill="#fce37e"/></g><rect x="0" y="277.2" width="92.4" height="92.4" fill="#fdeca6"/><polygon points="0,277.2 92.4,277.2 92.4,369.6" fill="#ffffff"/><rect x="92.4" y="277.20000000000005" width="92.4" height="92.4" fill="#ffffff"/><rect x="92.4" y="277.2" width="46.2" height="46.2" fill="#fffdf6"/><g transform="translate(92.4,277.2) scale(2.31) rotate(0)"><path d="M10 0L20 10L10 20L0 10L10 0Z" fill="#ffffff"/></g><rect x="138.6" y="277.2" width="46.2" height="46.2" fill="#ffffff"/><polygon points="184.8,277.2 184.8,323.4 138.6,323.4" fill="#fdeca8"/><rect x="92.4" y="323.4" width="46.2" height="46.2" fill="#fdedac"/><g transform="translate(92.4,323.4) scale(2.31) rotate(0)"><path d="M10 0L20 10L10 20L0 10L10 0Z" fill="#ffffff"/></g><rect x="138.6" y="323.4" width="46.2" height="46.2" fill="#ffffff"/><g transform="translate(138.6,323.4) scale(2.31) rotate(0)"><path d="M10 1L12.2451 7.90983H19.5106L13.6327 12.1803L15.8779 19.0902L10 14.8197L4.12215 19.0902L6.36729 12.1803L0.489441 7.90983H7.75487L10 1Z" fill="#fdf0b8"/></g><rect x="184.8" y="277.2" width="92.4" height="92.4" fill="#fef5d2"/><g transform="translate(184.8,277.2) scale(4.62) rotate(0)"><path d="M10 1L12.2451 7.90983H19.5106L13.6327 12.1803L15.8779 19.0902L10 14.8197L4.12215 19.0902L6.36729 12.1803L0.489441 7.90983H7.75487L10 1Z" fill="#fef4cb"/></g><rect x="277.20000000000005" y="277.20000000000005" width="92.4" height="92.4" fill="#ffffff"/><rect x="277.2" y="277.2" width="46.2" height="46.2" fill="#ffffff"/><g transform="translate(277.2,277.2) scale(2.31) rotate(0)"><path d="M10 0L20 10L10 20L0 10L10 0Z" fill="#fbda53"/></g><rect x="323.4" y="277.2" width="46.2" height="46.2" fill="#fffbeb"/><polygon points="323.4,277.2 369.59999999999997,277.2 323.4,323.4" fill="#fcdf6c"/><rect x="277.2" y="323.4" width="46.2" height="46.2" fill="#fce173"/><g transform="translate(277.2,323.4) scale(2.31) rotate(0)"><path d="M10 0L20 10L10 20L0 10L10 0Z" fill="#ffffff"/></g><rect x="323.4" y="323.4" width="46.2" height="46.2" fill="#ffffff"/><g transform="translate(323.4,323.4) scale(2.31) rotate(0)"><path d="M10 0L20 10L10 20L0 10L10 0Z" fill="#facd17"/></g><rect x="369.6" y="277.2" width="92.4" height="92.4" fill="#fdefb6"/><polygon points="462,277.2 462,369.6 369.6,369.6" fill="#ffffff"/><rect x="462" y="277.2" width="92.4" height="92.4" fill="#ffffff"/><g transform="translate(462,277.2) scale(4.62) rotate(0)"><path d="M10 1L12.2451 7.90983H19.5106L13.6327 12.1803L15.8779 19.0902L10 14.8197L4.12215 19.0902L6.36729 12.1803L0.489441 7.90983H7.75487L10 1Z" fill="#fce37d"/></g><rect x="554.4000000000001" y="277.20000000000005" width="92.4" height="92.4" fill="#ffffff"/><rect x="554.4" y="277.2" width="46.2" height="46.2" fill="#fef2c4"/><g transform="translate(554.4,277.2) scale(2.31) rotate(0)"><path d="M10 1L12.2451 7.90983H19.5106L13.6327 12.1803L15.8779 19.0902L10 14.8197L4.12215 19.0902L6.36729 12.1803L0.489441 7.90983H7.75487L10 1Z" fill="#ffffff"/></g><rect x="600.6" y="277.2" width="46.2" height="46.2" fill="#fce587"/><polygon points="600.6,277.2 646.8000000000001,277.2 600.6,323.4" fill="#fdeca6"/><rect x="554.4" y="323.4" width="46.2" height="46.2" fill="#fef4ce"/><g transform="translate(554.4,323.4) scale(2.31) rotate(0)"><path d="M10 1L12.2451 7.90983H19.5106L13.6327 12.1803L15.8779 19.0902L10 14.8197L4.12215 19.0902L6.36729 12.1803L0.489441 7.90983H7.75487L10 1Z" fill="#fde893"/></g><rect x="600.6" y="323.4" width="46.2" height="46.2" fill="#fce484"/><polygon points="600.6,323.4 646.8000000000001,323.4 646.8000000000001,369.59999999999997" fill="#ffffff"/><rect x="646.8000000000001" y="277.20000000000005" width="92.4" height="92.4" fill="#ffffff"/><rect x="646.8" y="277.2" width="46.2" height="46.2" fill="#ffffff"/><polygon points="646.8,277.2 693,323.4 646.8,323.4" fill="#ffffff"/><rect x="693" y="277.2" width="46.2" height="46.2" fill="#facd18"/><polygon points="693,277.2 739.2,323.4 693,323.4" fill="#fcdd61"/><rect x="646.8" y="323.4" width="46.2" height="46.2" fill="#ffffff"/><g transform="translate(646.8,323.4) scale(2.31) rotate(0)"><path d="M10 1L12.2451 7.90983H19.5106L13.6327 12.1803L15.8779 19.0902L10 14.8197L4.12215 19.0902L6.36729 12.1803L0.489441 7.90983H7.75487L10 1Z" fill="#fbd438"/></g><rect x="693" y="323.4" width="46.2" height="46.2" fill="#fcdc5c"/><polygon points="693,323.4 739.2,369.59999999999997 693,369.59999999999997" fill="#ffffff"/><rect x="0" y="369.6" width="92.4" height="92.4" fill="#ffffff"/><rect x="0" y="369.6" width="46.2" height="46.2" fill="#fcdd60"/><g transform="translate(0,369.6) scale(2.31) rotate(0)"><path d="M10 1L12.2451 7.90983H19.5106L13.6327 12.1803L15.8779 19.0902L10 14.8197L4.12215 19.0902L6.36729 12.1803L0.489441 7.90983H7.75487L10 1Z" fill="#ffffff"/></g><rect x="46.2" y="369.6" width="46.2" height="46.2" fill="#ffffff"/><g transform="translate(46.2,369.6) scale(2.31) rotate(0)"><path d="M10 1L12.2451 7.90983H19.5106L13.6327 12.1803L15.8779 19.0902L10 14.8197L4.12215 19.0902L6.36729 12.1803L0.489441 7.90983H7.75487L10 1Z" fill="#ffffff"/></g><rect x="0" y="415.8" width="46.2" height="46.2" fill="#ffffff"/><g transform="translate(0,415.8) scale(2.31) rotate(0)"><path d="M10 0L20 10L10 20L0 10L10 0Z" fill="#ffffff"/></g><rect x="46.2" y="415.8" width="46.2" height="46.2" fill="#fef3c9"/><polygon points="46.2,415.8 92.4,415.8 46.2,462" fill="#ffffff"/><rect x="92.4" y="369.6" width="92.4" height="92.4" fill="#ffffff"/><rect x="92.4" y="369.6" width="46.2" height="46.2" fill="#fad12a"/><polygon points="92.4,369.6 138.60000000000002,369.6 138.60000000000002,415.8" fill="#fde896"/><rect x="138.6" y="369.6" width="46.2" height="46.2" fill="#ffffff"/><g transform="translate(138.6,369.6) scale(2.31) rotate(0)"><path d="M10 1L12.2451 7.90983H19.5106L13.6327 12.1803L15.8779 19.0902L10 14.8197L4.12215 19.0902L6.36729 12.1803L0.489441 7.90983H7.75487L10 1Z" fill="#ffffff"/></g><rect x="92.4" y="415.8" width="46.2" height="46.2" fill="#ffffff"/><g transform="translate(92.4,415.8) scale(2.31) rotate(0)"><path d="M10 0L20 10L10 20L0 10L10 0Z" fill="#fef6d4"/></g><rect x="138.6" y="415.8" width="46.2" height="46.2" fill="#fde68c"/><g transform="translate(138.6,415.8) scale(2.31) rotate(0)"><path d="M10 0L20 10L10 20L0 10L10 0Z" fill="#fef8e1"/></g><rect x="184.8" y="369.6" width="92.4" height="92.4" fill="#ffffff"/><rect x="184.8" y="369.6" width="46.2" height="46.2" fill="#fdeeb2"/><g transform="translate(184.8,369.6) scale(2.31) rotate(0)"><path d="M10 1L12.2451 7.90983H19.5106L13.6327 12.1803L15.8779 19.0902L10 14.8197L4.12215 19.0902L6.36729 12.1803L0.489441 7.90983H7.75487L10 1Z" fill="#fce589"/></g><rect x="231" y="369.6" width="46.2" height="46.2" fill="#fce175"/><polygon points="231,369.6 277.2,369.6 277.2,415.8" fill="#fcdd61"/><rect x="184.8" y="415.8" width="46.2" height="46.2" fill="#ffffff"/><g transform="translate(184.8,415.8) scale(2.31) rotate(0)"><path d="M10 1L12.2451 7.90983H19.5106L13.6327 12.1803L15.8779 19.0902L10 14.8197L4.12215 19.0902L6.36729 12.1803L0.489441 7.90983H7.75487L10 1Z" fill="#ffffff"/></g><rect x="231" y="415.8" width="46.2" height="46.2" fill="#ffffff"/><g transform="translate(231,415.8) scale(2.31) rotate(0)"><path d="M10 1L12.2451 7.90983H19.5106L13.6327 12.1803L15.8779 19.0902L10 14.8197L4.12215 19.0902L6.36729 12.1803L0.489441 7.90983H7.75487L10 1Z" fill="#ffffff"/></g><rect x="277.2" y="369.6" width="92.4" height="92.4" fill="#fdefb7"/><polygon points="369.6,369.6 369.6,462 277.2,462" fill="#ffffff"/><rect x="369.6" y="369.6" width="92.4" height="92.4" fill="#fbda56"/><polygon points="369.6,369.6 462,462 369.6,462" fill="#fef3c9"/><rect x="462" y="369.6" width="92.4" height="92.4" fill="#fdefb4"/><g transform="translate(462,369.6) scale(4.62) rotate(0)"><path d="M10 0L20 10L10 20L0 10L10 0Z" fill="#fdea9f"/></g><rect x="554.4" y="369.6" width="92.4" height="92.4" fill="#ffffff"/><polygon points="646.8,369.6 646.8,462 554.4,462" fill="#ffffff"/><rect x="646.8000000000001" y="369.6" width="92.4" height="92.4" fill="#ffffff"/><rect x="646.8" y="369.6" width="46.2" height="46.2" fill="#ffffff"/><g transform="translate(646.8,369.6) scale(2.31) rotate(0)"><path d="M10 1L12.2451 7.90983H19.5106L13.6327 12.1803L15.8779 19.0902L10 14.8197L4.12215 19.0902L6.36729 12.1803L0.489441 7.90983H7.75487L10 1Z" fill="#ffffff"/></g><rect x="693" y="369.6" width="46.2" height="46.2" fill="#ffffff"/><polygon points="739.2,369.6 739.2,415.8 693,415.8" fill="#ffffff"/><rect x="646.8" y="415.8" width="46.2" height="46.2" fill="#fde791"/><g transform="translate(646.8,415.8) scale(2.31) rotate(0)"><path d="M10 0L20 10L10 20L0 10L10 0Z" fill="#ffffff"/></g><rect x="693" y="415.8" width="46.2" height="46.2" fill="#fef8df"/><polygon points="739.2,415.8 739.2,462 693,462" fill="#fef3c9"/></g></svg>