<svg xmlns="http://www.w3.org/2000/svg" version="1.1" xmlns:xlink="http://www.w3.org/1999/xlink" xmlns:svgjs="http://svgjs.com/svgjs" width="512" height="512" x="0" y="0" viewBox="0 0 4335 4335" style="enable-background:new 0 0 512 512" xml:space="preserve" class=""><g><path d="M4081 3757H618v229h3602v-229zM1606 1983c-215 0-417-76-577-217l-273 274c126 126 124 95-78 295l-362 362c-23 22-59 22-82 0L17 2480c-23-23-23-59 0-82l508-508c51-51 107 26 149 68l274-273c-494-563-92-1452 658-1452 774 0 1168 944 618 1494-165 165-385 256-618 256zm0-1634c-668 0-1018 811-537 1297 292 295 776 297 1074-1 477-478 135-1296-537-1296zM139 2439l136 135 281-280-136-136zm498-227 64-64-135-135-64 64zm1057-488c-264 0-214 39-274-228-20-9-39-20-58-33-261 82-202 105-333-124-14-23-9-53 10-71l138-126v-67c-202-185-192-123-60-351 14-23 42-34 67-26l178 56c19-13 38-24 58-34 60-267 10-227 274-227 27 0 50 19 56 45l41 182c20 10 40 21 58 34 261-82 202-105 334 123 13 24 9 53-11 72l-138 126v67c202 185 192 122 60 351-13 23-41 34-67 26l-178-56c-18 13-38 24-58 33l-41 182c-6 27-29 46-56 46zm-131-116h85c64-286 24-149 154-254 15-12 35-16 54-10l161 51 43-73c-216-198-118-95-143-261-3-19 4-39 18-51l125-115-43-73c-279 88-141 54-297-7-18-7-31-22-35-41l-37-166h-85c-63 286-23 150-154 255-15 12-35 15-53 10l-162-51-42 73c215 198 117 94 143 261 2 19-4 38-19 51l-124 115 42 73c279-88 141-55 297 7 18 7 31 22 36 41zm43-282c-120 0-218-98-218-218s98-217 218-217c119 0 217 97 217 217s-98 218-217 218zm0-320c-135 0-135 204 0 204 134 0 134-204 0-204zm2002 2636V894c0-32 25-58 57-58h416c31 0 57 26 57 58v2748h139c32 0 58 26 58 58v344c0 32-26 58-58 58H561c-32 0-58-26-58-58v-344c0-32 26-58 58-58h139v-687c0-32 26-57 57-57h416c32 0 57 25 57 57v687h197V2512c0-32 25-58 57-58h416c32 0 57 26 57 58v1130h197V2082c0-32 25-58 57-58h416c32 0 57 26 57 58v1560h197V1602c0-31 25-57 57-57h416c32 0 57 26 57 57v2040zm-2793 0h300v-629H815zm727 0h300V2569h-300zm727 0h300V2140h-300zm727 0h300V1660h-300zm727 0h300V951h-300z" fill="#1a1a51" data-original="#000000" class=""></path></g></svg>