<svg xmlns="http://www.w3.org/2000/svg" version="1.1" xmlns:xlink="http://www.w3.org/1999/xlink" xmlns:svgjs="http://svgjs.com/svgjs" width="512" height="512" x="0" y="0" viewBox="0 0 66 66" style="enable-background:new 0 0 512 512" xml:space="preserve" class=""><g><path d="M34.2 13.2h-.4c-4 0-16.3-.1-20.7 16.9-.1.3-.9 2.8.3 4.4.3.4.7.8 1.4 1l-5.1 9.2c-.2.3-.2.7 0 1s.5.5.9.5h4.8l-.7 8.1c-.1 1.9 1.3 3.6 3.3 4.3 1.6.5 3.9.3 6-1.4v7.1c0 .6.4 1 1 1h18.8c.5 0 1-.4 1-1 .1-1.7 0-3.1 0-4.4-.1-3-.1-5 1.3-7.3 3.3-5.4 10.5-19 5.8-28.2-6.1-11.2-14.8-11.2-17.7-11.2zm10 38.6c-1.7 2.8-1.7 5.3-1.6 8.4 0 1 .1 2.1 0 3.3H25.8v-8.8c0-.4-.3-.8-.7-1-.4-.1-.9 0-1.1.4-1.6 2.3-3.6 3.4-5.5 2.7-1.2-.4-2-1.3-1.9-2.3l.8-9.1c0-.3-.1-.6-.3-.8s-.5-.3-.7-.3h-4.2l5-9c.2-.3.2-.7 0-1s-.5-.5-.9-.5c-.7 0-1.1-.1-1.3-.4-.5-.6-.2-2 0-2.7 4.1-15.6 14.8-15.6 18.8-15.5h.4c2.6 0 10.4 0 15.7 10.3 4.3 8.3-2.5 21.2-5.7 26.3zM30.6 5.5l1.7-1.6v6.6c0 .6.4 1 1 1s1-.4 1-1V3.9l1.6 1.6c.2.2.5.3.7.3.3 0 .5-.1.7-.3.4-.4.4-1 0-1.4L34 .8c-.4-.4-1.1-.3-1.4 0l-3.4 3.3c-.4.4-.4 1 0 1.4s1 .4 1.4 0zM65.2 32.3l-3.3-3.4c-.4-.4-1-.4-1.4 0s-.4 1 0 1.4l1.6 1.7h-6.6c-.6 0-1 .4-1 1s.4 1 1 1h6.6l-1.6 1.6c-.4.4-.4 1 0 1.4s1 .4 1.4 0l3.3-3.3c.3-.4.5-1 0-1.4zM3.9 34h6.6c.6 0 1-.4 1-1s-.4-1-1-1H3.9l1.6-1.7c.4-.4.4-1 0-1.4s-1-.4-1.4 0L.8 32.3c-.3.3-.4 1 0 1.4L4.1 37c.4.4 1 .4 1.4 0s.4-1 0-1.4zM49.2 18.1c.3 0 .5-.1.7-.3l4.7-4.6v2.2c0 .6.4 1 1 1s1-.4 1-1v-4.7c0-.3-.1-.5-.3-.7-.1-.1-.4-.3-.7-.3h-4.7c-.5 0-1 .4-1 1s.4 1 1 1h2.3l-4.7 4.7c-.4.4-.4 1 0 1.4.2.2.4.3.7.3zM11 16.4c.6 0 1-.4 1-1v-2.2l4.7 4.6c.4.4 1 .4 1.4 0s.4-1 0-1.4l-4.7-4.7h2.3c.6 0 1-.5 1-1s-.5-1-1-1H11c-.3 0-.6.2-.7.3-.2.2-.3.4-.3.7v4.7c0 .5.4 1 1 1z" fill="#1a1a51" data-original="#000000" class=""></path><path d="M33.7 22.5c.6 0 1-.4 1-1v-2.3c0-.6-.4-1-1-1s-1 .4-1 1v2.3c0 .6.4 1 1 1zM47.5 32h-2.3c-.6 0-1 .4-1 1s.4 1 1 1h2.3c.6 0 1-.4 1-1s-.5-1-1-1zM23.2 33c0-.6-.4-1-1-1h-2.3c-.6 0-1 .4-1 1s.4 1 1 1h2.3c.5 0 1-.4 1-1zM42.5 25.6l1.6-1.7c.4-.4.4-1 0-1.4s-1-.4-1.4 0l-1.6 1.7c-.4.4-.4 1 0 1.4s1 .4 1.4 0zM24.8 25.6c.4.4 1 .4 1.4 0s.4-1 0-1.4l-1.6-1.7c-.4-.4-1-.4-1.4 0s-.4 1 0 1.4zM46.8 37.3l-2.2-.9c-.5-.2-1.1 0-1.3.5s0 1.1.5 1.3l2.2.9c.5.2 1.1 0 1.3-.5.3-.5.1-1-.5-1.3zM20.5 28.7l2.2.9c.5.2 1.1 0 1.3-.5s0-1.1-.5-1.3l-2.2-.9c-.5-.2-1.1 0-1.3.5-.3.5 0 1.1.5 1.3zM37.6 23.3c.5.2 1.1 0 1.3-.5l.9-2.2c.2-.5 0-1.1-.5-1.3s-1.1 0-1.3.5l-.9 2.2c-.2.5 0 1.1.5 1.3zM28.3 22.8c.2.5.8.7 1.3.5s.7-.8.5-1.3l-.9-2.2c-.2-.5-.8-.8-1.3-.5-.5.2-.7.8-.5 1.3zM22.7 36.6l-2.1.9c-.5.2-.7.8-.5 1.3s.8.7 1.3.5l2.1-.9c.5-.2.7-.8.5-1.3s-.8-.7-1.3-.5zM43.3 29c.2.5.8.7 1.3.5l2.1-.9c.5-.2.7-.8.5-1.3s-.8-.7-1.3-.5l-2.1.9c-.4.2-.7.7-.5 1.3z" fill="#1a1a51" data-original="#000000" class=""></path><path d="M40.5 25.3c-2-1.9-4.6-2.8-7.4-2.7-4.9.3-9 4.3-9.4 9.3-.4 4.1 1.3 6.3 2.8 8.2 1.1 1.4 2.2 2.8 2.6 5.1h-.4c-.8 0-1.4.7-1.4 1.4v3.5c0 .4.2.7.4 1 .3.3.6.4 1 .4h1.8v.5h-.7c-.6 0-1 .5-1 1 0 .6.4 1 1 1h.8c.1.4.3.8.6 1.1.5.5 1.1.8 1.8.8h1.3c1.2 0 2.2-.8 2.5-1.9h.8c.6 0 1-.5 1-1 0-.6-.5-1-1-1H37v-.5h1.8c.4 0 .7-.2 1-.4.3-.3.4-.6.4-1v-3.5c0-.8-.7-1.4-1.4-1.4h-.4c.3-2.4 1.4-3.7 2.5-5.1 1.4-1.8 2.8-3.6 2.8-7.2 0-3-1.2-5.7-3.2-7.6zm-5.5 28c0 .4-.3.7-.6.7h-1.3c-.2 0-.3-.1-.4-.2s-.2-.3-.2-.5v-1.7H35zm-5.8-3.7v-2.4h9v2.4zm4.5-13.9c-.7 0-1.3-.6-1.3-1.3s.6-1.3 1.3-1.3 1.3.6 1.3 1.3-.6 1.3-1.3 1.3zm5.6 3.1c-1.2 1.5-2.6 3.3-2.9 6.3h-1.7v-7.6c1.4-.4 2.3-1.7 2.3-3.2 0-1.8-1.5-3.3-3.3-3.3s-3.3 1.5-3.3 3.3c0 1.5 1 2.7 2.3 3.2v7.6h-1.6c-.4-3-1.8-4.8-3-6.3-1.4-1.8-2.7-3.4-2.4-6.7.4-4.2 3.8-7.5 8-7.5 4.5 0 8 3.8 8.1 8.3-.1 2.9-1.2 4.3-2.5 5.9z" fill="#1a1a51" data-original="#000000" class=""></path></g></svg>