<?xml version="1.0" standalone="no"?><svg xmlns:xlink="http://www.w3.org/1999/xlink" xmlns="http://www.w3.org/2000/svg" viewBox="0 0 1000 625.0015053022767" preserveAspectRatio="xMaxYMax slice"><g transform="scale(1.20424182139167)"><rect x="0" y="0" width="830.4" height="519" fill="#ffffff"/><circle cx="51.9" cy="51.9" r="51.9" fill="#1A1A51"/><rect x="103.8" y="0" width="103.8" height="103.8" fill="#ffffff"/><circle cx="129.75" cy="25.95" r="25.95" fill="#1A1A51"/><circle cx="181.64999999999998" cy="25.95" r="25.95" fill="#facc14"/><circle cx="129.75" cy="77.85" r="25.95" fill="#facc14"/><circle cx="181.64999999999998" cy="77.85" r="25.95" fill="#facc14"/><rect x="207.6" y="0" width="103.8" height="103.8" fill="#ffffff"/><circle cx="233.54999999999998" cy="25.95" r="25.95" fill="#facc14"/><circle cx="285.45" cy="25.95" r="25.95" fill="#facc14"/><circle cx="233.54999999999998" cy="77.85" r="25.95" fill="#1A1A51"/><circle cx="285.45" cy="77.85" r="25.95" fill="#1A1A51"/><rect x="311.4" y="0" width="103.8" height="103.8" fill="#ffffff"/><circle cx="337.34999999999997" cy="25.95" r="25.95" fill="#facc14"/><circle cx="389.25" cy="25.95" r="25.95" fill="#facc14"/><circle cx="337.34999999999997" cy="77.85" r="25.95" fill="#1A1A51"/><circle cx="389.25" cy="77.85" r="25.95" fill="#facc14"/><rect x="415.2" y="0" width="103.8" height="103.8" fill="#ffffff"/><circle cx="441.15" cy="25.95" r="25.95" fill="#facc14"/><circle cx="493.05" cy="25.95" r="25.95" fill="#1A1A51"/><circle cx="441.15" cy="77.85" r="25.95" fill="#1A1A51"/><circle cx="493.05" cy="77.85" r="25.95" fill="#1A1A51"/><rect x="519" y="0" width="103.8" height="103.8" fill="#ffffff"/><circle cx="544.95" cy="25.95" r="25.95" fill="#1A1A51"/><circle cx="596.85" cy="25.95" r="25.95" fill="#facc14"/><circle cx="544.95" cy="77.85" r="25.95" fill="#1A1A51"/><circle cx="596.85" cy="77.85" r="25.95" fill="#1A1A51"/><circle cx="674.6999999999999" cy="51.9" r="51.9" fill="#1A1A51"/><rect x="726.6" y="0" width="103.8" height="103.8" fill="#ffffff"/><circle cx="752.5500000000001" cy="25.95" r="25.95" fill="#1A1A51"/><circle cx="804.45" cy="25.95" r="25.95" fill="#1A1A51"/><circle cx="752.5500000000001" cy="77.85" r="25.95" fill="#1A1A51"/><circle cx="804.45" cy="77.85" r="25.95" fill="#1A1A51"/><circle cx="51.9" cy="155.7" r="51.9" fill="#1A1A51"/><rect x="103.8" y="103.8" width="103.8" height="103.8" fill="#ffffff"/><circle cx="129.75" cy="129.75" r="25.95" fill="#facc14"/><circle cx="181.64999999999998" cy="129.75" r="25.95" fill="#1A1A51"/><circle cx="129.75" cy="181.64999999999998" r="25.95" fill="#1A1A51"/><circle cx="181.64999999999998" cy="181.64999999999998" r="25.95" fill="#facc14"/><circle cx="259.5" cy="155.7" r="51.9" fill="#1A1A51"/><rect x="311.4" y="103.8" width="103.8" height="103.8" fill="#ffffff"/><circle cx="337.34999999999997" cy="129.75" r="25.95" fill="#facc14"/><circle cx="389.25" cy="129.75" r="25.95" fill="#1A1A51"/><circle cx="337.34999999999997" cy="181.64999999999998" r="25.95" fill="#facc14"/><circle cx="389.25" cy="181.64999999999998" r="25.95" fill="#facc14"/><rect x="415.2" y="103.8" width="103.8" height="103.8" fill="#ffffff"/><circle cx="441.15" cy="129.75" r="25.95" fill="#1A1A51"/><circle cx="493.05" cy="129.75" r="25.95" fill="#1A1A51"/><circle cx="441.15" cy="181.64999999999998" r="25.95" fill="#facc14"/><circle cx="493.05" cy="181.64999999999998" r="25.95" fill="#1A1A51"/><rect x="519" y="103.8" width="103.8" height="103.8" fill="#ffffff"/><circle cx="544.95" cy="129.75" r="25.95" fill="#facc14"/><circle cx="596.85" cy="129.75" r="25.95" fill="#facc14"/><circle cx="544.95" cy="181.64999999999998" r="25.95" fill="#1A1A51"/><circle cx="596.85" cy="181.64999999999998" r="25.95" fill="#facc14"/><circle cx="674.6999999999999" cy="155.7" r="51.9" fill="#facc14"/><rect x="726.6" y="103.8" width="103.8" height="103.8" fill="#ffffff"/><circle cx="752.5500000000001" cy="129.75" r="25.95" fill="#1A1A51"/><circle cx="804.45" cy="129.75" r="25.95" fill="#1A1A51"/><circle cx="752.5500000000001" cy="181.64999999999998" r="25.95" fill="#facc14"/><circle cx="804.45" cy="181.64999999999998" r="25.95" fill="#facc14"/><rect x="0" y="207.6" width="103.8" height="103.8" fill="#ffffff"/><circle cx="25.95" cy="233.54999999999998" r="25.95" fill="#1A1A51"/><circle cx="77.85" cy="233.54999999999998" r="25.95" fill="#facc14"/><circle cx="25.95" cy="285.45" r="25.95" fill="#facc14"/><circle cx="77.85" cy="285.45" r="25.95" fill="#facc14"/><circle cx="155.7" cy="259.5" r="51.9" fill="#1A1A51"/><circle cx="259.5" cy="259.5" r="51.9" fill="#facc14"/><circle cx="363.29999999999995" cy="259.5" r="51.9" fill="#1A1A51"/><circle cx="467.09999999999997" cy="259.5" r="51.9" fill="#1A1A51"/><rect x="519" y="207.6" width="103.8" height="103.8" fill="#ffffff"/><circle cx="544.95" cy="233.54999999999998" r="25.95" fill="#facc14"/><circle cx="596.85" cy="233.54999999999998" r="25.95" fill="#facc14"/><circle cx="544.95" cy="285.45" r="25.95" fill="#facc14"/><circle cx="596.85" cy="285.45" r="25.95" fill="#facc14"/><circle cx="674.6999999999999" cy="259.5" r="51.9" fill="#facc14"/><circle cx="778.5" cy="259.5" r="51.9" fill="#facc14"/><circle cx="51.9" cy="363.29999999999995" r="51.9" fill="#facc14"/><circle cx="155.7" cy="363.29999999999995" r="51.9" fill="#facc14"/><circle cx="259.5" cy="363.29999999999995" r="51.9" fill="#facc14"/><circle cx="363.29999999999995" cy="363.29999999999995" r="51.9" fill="#facc14"/><circle cx="467.09999999999997" cy="363.29999999999995" r="51.9" fill="#1A1A51"/><rect x="519" y="311.4" width="103.8" height="103.8" fill="#ffffff"/><circle cx="544.95" cy="337.34999999999997" r="25.95" fill="#1A1A51"/><circle cx="596.85" cy="337.34999999999997" r="25.95" fill="#1A1A51"/><circle cx="544.95" cy="389.25" r="25.95" fill="#facc14"/><circle cx="596.85" cy="389.25" r="25.95" fill="#facc14"/><rect x="622.8" y="311.4" width="103.8" height="103.8" fill="#ffffff"/><circle cx="648.75" cy="337.34999999999997" r="25.95" fill="#1A1A51"/><circle cx="700.6500000000001" cy="337.34999999999997" r="25.95" fill="#facc14"/><circle cx="648.75" cy="389.25" r="25.95" fill="#1A1A51"/><circle cx="700.6500000000001" cy="389.25" r="25.95" fill="#1A1A51"/><rect x="726.6" y="311.4" width="103.8" height="103.8" fill="#ffffff"/><circle cx="752.5500000000001" cy="337.34999999999997" r="25.95" fill="#1A1A51"/><circle cx="804.45" cy="337.34999999999997" r="25.95" fill="#1A1A51"/><circle cx="752.5500000000001" cy="389.25" r="25.95" fill="#facc14"/><circle cx="804.45" cy="389.25" r="25.95" fill="#1A1A51"/><circle cx="51.9" cy="467.09999999999997" r="51.9" fill="#facc14"/><circle cx="155.7" cy="467.09999999999997" r="51.9" fill="#1A1A51"/><circle cx="259.5" cy="467.09999999999997" r="51.9" fill="#facc14"/><circle cx="363.29999999999995" cy="467.09999999999997" r="51.9" fill="#1A1A51"/><circle cx="467.09999999999997" cy="467.09999999999997" r="51.9" fill="#1A1A51"/><rect x="519" y="415.2" width="103.8" height="103.8" fill="#ffffff"/><circle cx="544.95" cy="441.15" r="25.95" fill="#facc14"/><circle cx="596.85" cy="441.15" r="25.95" fill="#facc14"/><circle cx="544.95" cy="493.05" r="25.95" fill="#1A1A51"/><circle cx="596.85" cy="493.05" r="25.95" fill="#1A1A51"/><rect x="622.8" y="415.2" width="103.8" height="103.8" fill="#ffffff"/><circle cx="648.75" cy="441.15" r="25.95" fill="#facc14"/><circle cx="700.6500000000001" cy="441.15" r="25.95" fill="#1A1A51"/><circle cx="648.75" cy="493.05" r="25.95" fill="#1A1A51"/><circle cx="700.6500000000001" cy="493.05" r="25.95" fill="#1A1A51"/><rect x="726.6" y="415.2" width="103.8" height="103.8" fill="#ffffff"/><circle cx="752.5500000000001" cy="441.15" r="25.95" fill="#1A1A51"/><circle cx="804.45" cy="441.15" r="25.95" fill="#1A1A51"/><circle cx="752.5500000000001" cy="493.05" r="25.95" fill="#1A1A51"/><circle cx="804.45" cy="493.05" r="25.95" fill="#facc14"/></g></svg>