<svg xmlns="http://www.w3.org/2000/svg" version="1.1" xmlns:xlink="http://www.w3.org/1999/xlink" xmlns:svgjs="http://svgjs.com/svgjs" width="512" height="512" x="0" y="0" viewBox="0 0 100 100" style="enable-background:new 0 0 512 512" xml:space="preserve" class=""><g><path d="m85.008 67.879-8.893 8.892-3.371-3.371a1.5 1.5 0 0 0-2.121 2.121l4.432 4.432a1.5 1.5 0 0 0 2.121 0L87.129 70a1.5 1.5 0 0 0-2.121-2.121Z" fill="#facc15" data-original="#000000" class=""></path><path d="M89.669 59.975a24.727 24.727 0 0 0 .741-4.955V16.311a1.5 1.5 0 0 0-1.5-1.5c-13.01 0-16.451-10.193-16.59-10.623a1.5 1.5 0 0 0-1.43-1.048H29.11a1.5 1.5 0 0 0-1.428 1.044c-.141.434-3.579 10.627-16.592 10.627a1.5 1.5 0 0 0-1.5 1.5v38.72c.009 1.13.67 27.831 39.909 41.743a1.5 1.5 0 0 0 1 0 82.044 82.044 0 0 0 17.868-8.723 17.525 17.525 0 0 0 6.758 3.077c.291.07.593.128.863.17a16.834 16.834 0 0 0 2.89.242 17.624 17.624 0 0 0 10.791-31.565ZM50 93.768C13.341 80.552 12.6 56.045 12.59 55.02V17.769A19.857 19.857 0 0 0 30.118 6.14h39.764A19.857 19.857 0 0 0 87.41 17.769V55a19.929 19.929 0 0 1-.428 3.244c-.065-.034-.135-.06-.2-.093-.3-.154-.613-.3-.926-.43-.146-.063-.289-.132-.437-.191-.46-.184-.926-.353-1.4-.5a1.345 1.345 0 0 0-.091-.023 17.843 17.843 0 0 0-5.128-.727c-.162 0-.31 0-.391.011a17.329 17.329 0 0 0-2.4.23q-.528.087-1.049.206a17.546 17.546 0 0 0-6.53 3A12.178 12.178 0 0 0 56.27 47.82h-.72a1.5 1.5 0 0 0-1.5 1.5 4.345 4.345 0 1 1-8.69 0 1.5 1.5 0 0 0-1.5-1.5h-.72a12.179 12.179 0 0 0-12.16 12.17v6.12a1.5 1.5 0 0 0 1.5 1.5h29.951a15.766 15.766 0 0 0-.525 1.563 17.437 17.437 0 0 0-.656 4.737c0 .361.011.72.042 1.06 0 .085.012.167.024.259a17.657 17.657 0 0 0 .37 2.577 16.24 16.24 0 0 0 .807 2.583c.207.527.431 1.023.655 1.461a17.563 17.563 0 0 0 2.121 3.261c.254.306.5.584.746.843l.036.04A79.545 79.545 0 0 1 50 93.768Zm15.44-31.223a17.857 17.857 0 0 0-1.523 2.065H33.98v-4.62a9.179 9.179 0 0 1 8.539-9.149 7.345 7.345 0 0 0 14.373 0 9.182 9.182 0 0 1 8.548 9.149Zm13.44 26a13.834 13.834 0 0 1-2.4-.2 7.738 7.738 0 0 1-.683-.135 14.565 14.565 0 0 1-6.377-3.148 16.03 16.03 0 0 1-.694-.631 13.845 13.845 0 0 1-1.152-1.232 14.619 14.619 0 0 1-1.749-2.7 13.521 13.521 0 0 1-.546-1.221 13.147 13.147 0 0 1-.662-2.112 14.323 14.323 0 0 1-.309-2.174c0-.038-.012-.069-.017-.107a1.413 1.413 0 0 0-.007-.146 8.506 8.506 0 0 1-.033-.824 14.458 14.458 0 0 1 .548-3.938 12.951 12.951 0 0 1 .7-1.942l.1-.226c.051-.12.106-.237.16-.349l.044-.093a14.8 14.8 0 0 1 3.433-4.431c.217-.2.443-.381.675-.567q.048-.031.093-.066a14.538 14.538 0 0 1 6.5-2.819 15.166 15.166 0 0 1 2.074-.194c.08-.006.152 0 .309 0a14.709 14.709 0 0 1 4.257.625.934.934 0 0 0 .08.022 14.279 14.279 0 0 1 3.905 1.9A14.627 14.627 0 0 1 78.88 88.54Z" fill="#facc15" data-original="#000000" class=""></path><path d="M49.259 46.528a11.139 11.139 0 1 0-11.14-11.139 11.151 11.151 0 0 0 11.14 11.139Zm0-19.278a8.139 8.139 0 1 1-8.14 8.139 8.148 8.148 0 0 1 8.14-8.139Z" fill="#facc15" data-original="#000000" class=""></path></g></svg>