<?xml version="1.0" standalone="no"?><svg xmlns:xlink="http://www.w3.org/1999/xlink" xmlns="http://www.w3.org/2000/svg" viewBox="0 0 1000 500" preserveAspectRatio="xMaxYMax slice"><g transform="scale(1.0822510822510822)"><rect x="0" y="0" width="924" height="462" fill="#ffffff"/><polygon points="0,0 115.5,0 0,115.5" fill="#1A1A51"/><polygon points="231,0 231,115.5 115.5,115.5" fill="#facc14"/><rect x="231" y="0" width="115.5" height="115.5" fill="#ffffff"/><polygon points="231,0 288.75,0 288.75,57.75" fill="#facc14"/><polygon points="288.75,0 346.5,0 288.75,57.75" fill="#1A1A51"/><polygon points="231,57.75 288.75,57.75 288.75,115.5" fill="#facc14"/><polygon points="288.75,57.75 346.5,57.75 346.5,115.5" fill="#1A1A51"/><polygon points="346.5,0 462,0 346.5,115.5" fill="#1A1A51"/><rect x="462" y="0" width="115.5" height="115.5" fill="#ffffff"/><polygon points="462,0 519.75,0 462,57.75" fill="#facc14"/><polygon points="519.75,0 577.5,0 577.5,57.75" fill="#1A1A51"/><polygon points="519.75,57.75 519.75,115.5 462,115.5" fill="#1A1A51"/><polygon points="519.75,57.75 577.5,57.75 519.75,115.5" fill="#facc14"/><polygon points="577.5,0 693,115.5 577.5,115.5" fill="#facc14"/><polygon points="808.5,0 808.5,115.5 693,115.5" fill="#1A1A51"/><polygon points="808.5,0 924,0 808.5,115.5" fill="#facc14"/><polygon points="115.5,115.5 115.5,231 0,231" fill="#facc14"/><polygon points="115.5,115.5 231,115.5 115.5,231" fill="#facc14"/><polygon points="346.5,115.5 346.5,231 231,231" fill="#facc14"/><polygon points="346.5,115.5 462,115.5 346.5,231" fill="#1A1A51"/><rect x="462" y="115.5" width="115.5" height="115.5" fill="#ffffff"/><polygon points="519.75,115.5 519.75,173.25 462,173.25" fill="#1A1A51"/><polygon points="577.5,115.5 577.5,173.25 519.75,173.25" fill="#facc14"/><polygon points="462,173.25 519.75,173.25 519.75,231" fill="#1A1A51"/><polygon points="519.75,173.25 577.5,231 519.75,231" fill="#1A1A51"/><polygon points="577.5,115.5 693,115.5 693,231" fill="#1A1A51"/><rect x="693" y="115.5" width="115.5" height="115.5" fill="#ffffff"/><polygon points="693,115.5 750.75,115.5 693,173.25" fill="#facc14"/><polygon points="750.75,115.5 808.5,173.25 750.75,173.25" fill="#facc14"/><polygon points="693,173.25 750.75,173.25 750.75,231" fill="#1A1A51"/><polygon points="750.75,173.25 808.5,173.25 750.75,231" fill="#1A1A51"/><polygon points="808.5,115.5 924,115.5 808.5,231" fill="#facc14"/><rect x="0" y="231" width="115.5" height="115.5" fill="#ffffff"/><polygon points="0,231 57.75,231 57.75,288.75" fill="#1A1A51"/><polygon points="57.75,231 115.5,288.75 57.75,288.75" fill="#1A1A51"/><polygon points="0,288.75 57.75,288.75 57.75,346.5" fill="#facc14"/><polygon points="57.75,288.75 115.5,288.75 115.5,346.5" fill="#facc14"/><rect x="115.5" y="231" width="115.5" height="115.5" fill="#ffffff"/><polygon points="115.5,231 173.25,288.75 115.5,288.75" fill="#1A1A51"/><polygon points="173.25,231 231,231 231,288.75" fill="#facc14"/><polygon points="173.25,288.75 173.25,346.5 115.5,346.5" fill="#facc14"/><polygon points="231,288.75 231,346.5 173.25,346.5" fill="#facc14"/><polygon points="346.5,231 346.5,346.5 231,346.5" fill="#facc14"/><rect x="346.5" y="231" width="115.5" height="115.5" fill="#ffffff"/><polygon points="346.5,231 404.25,231 404.25,288.75" fill="#1A1A51"/><polygon points="404.25,231 462,288.75 404.25,288.75" fill="#facc14"/><polygon points="346.5,288.75 404.25,346.5 346.5,346.5" fill="#facc14"/><polygon points="404.25,288.75 462,346.5 404.25,346.5" fill="#1A1A51"/><polygon points="577.5,231 577.5,346.5 462,346.5" fill="#1A1A51"/><polygon points="577.5,231 693,231 577.5,346.5" fill="#1A1A51"/><polygon points="808.5,231 808.5,346.5 693,346.5" fill="#facc14"/><polygon points="924,231 924,346.5 808.5,346.5" fill="#facc14"/><polygon points="0,346.5 115.5,346.5 115.5,462" fill="#1A1A51"/><polygon points="115.5,346.5 231,346.5 115.5,462" fill="#facc14"/><rect x="231" y="346.5" width="115.5" height="115.5" fill="#ffffff"/><polygon points="231,346.5 288.75,346.5 288.75,404.25" fill="#facc14"/><polygon points="288.75,346.5 346.5,404.25 288.75,404.25" fill="#1A1A51"/><polygon points="288.75,404.25 288.75,462 231,462" fill="#1A1A51"/><polygon points="288.75,404.25 346.5,404.25 346.5,462" fill="#1A1A51"/><polygon points="346.5,346.5 462,346.5 346.5,462" fill="#1A1A51"/><rect x="462" y="346.5" width="115.5" height="115.5" fill="#ffffff"/><polygon points="519.75,346.5 519.75,404.25 462,404.25" fill="#facc14"/><polygon points="519.75,346.5 577.5,404.25 519.75,404.25" fill="#facc14"/><polygon points="519.75,404.25 519.75,462 462,462" fill="#1A1A51"/><polygon points="519.75,404.25 577.5,404.25 577.5,462" fill="#facc14"/><polygon points="577.5,346.5 693,462 577.5,462" fill="#facc14"/><polygon points="693,346.5 808.5,346.5 693,462" fill="#facc14"/><polygon points="924,346.5 924,462 808.5,462" fill="#facc14"/></g></svg>