<svg xmlns="http://www.w3.org/2000/svg" version="1.1" xmlns:xlink="http://www.w3.org/1999/xlink" xmlns:svgjs="http://svgjs.com/svgjs" width="512" height="512" x="0" y="0" viewBox="0 0 512 512" style="enable-background:new 0 0 512 512" xml:space="preserve" class=""><g><path fill-rule="evenodd" d="M102.431 117.805c-5.233-.243-9.671 3.802-9.914 9.035s3.802 9.671 9.035 9.914c5.233.242 9.671-3.803 9.914-9.035s-3.802-9.672-9.035-9.914zm399.69 156.116c-2.37 5.371-6.677 9.493-12.127 11.605l-28.461 11.034a21.836 21.836 0 0 1-7.906 1.487c-3.015 0-6.028-.63-8.875-1.887-5.372-2.37-9.494-6.677-11.606-12.127l-2.483-6.404-23.165 9.666c1.117 6.563.043 13.385-3.216 19.309-3.865 7.027-10.266 12.12-18.024 14.341-.32.092-.641.178-.962.259 2.534 7.634 2.027 16.233-2.11 23.754-6.106 11.103-18.286 16.792-30.15 15.22a29.497 29.497 0 0 1-3.59 16.181c-3.854 7.007-10.231 12.091-17.956 14.314-4.827 1.391-9.802 1.549-14.553.519a29.598 29.598 0 0 1-3.661 15.202c-3.854 7.009-10.504 12.273-18.243 14.442a29.88 29.88 0 0 1-8.067 1.12 28.83 28.83 0 0 1-14.408-3.852l-7.847-4.507c-3.891 5.478-9.46 9.502-16.024 11.491a30.785 30.785 0 0 1-8.939 1.335 30.28 30.28 0 0 1-14.313-3.604 30.462 30.462 0 0 1-14.1-15.962c-8.286 3.525-18.006 3.364-26.402-1.127-5.946-3.18-10.518-8.168-13.249-14.034-8.735 4.728-19.586 5.134-28.955.125-7.171-3.836-12.426-10.257-14.797-18.081-1.349-4.451-1.67-9.043-.989-13.495a30.22 30.22 0 0 1-15.049-3.579c-7.171-3.835-12.426-10.256-14.798-18.08-2.371-7.823-1.564-16.081 2.271-23.253l7.661-14.324c-1.712-4.07-2.556-8.519-3.365-12.867-1.468-7.889-2.61-12.776-6.098-14.13-2.053-.797-7.385-3.117-16.567-7.209l-3.078 6.963c-2.362 5.346-6.679 9.457-12.155 11.576a22 22 0 0 1-7.951 1.497c-3.007 0-6.004-.626-8.831-1.875l-27.919-12.34C10 267.733 4.977 254.752 9.866 243.688L73.97 98.651c2.363-5.346 6.679-9.457 12.155-11.576 5.476-2.118 11.437-1.984 16.782.378l27.919 12.34c11.065 4.891 16.089 17.872 11.199 28.938l-4.808 10.878 18.172 8.384c.195.09.386.188.572.293 9.987 5.622 20.417 3.177 33.62.081 17.234-4.039 38.444-8.999 63.187 5.542 34.186-21.133 60.449-10.421 79.836-2.497 14.45 5.906 23.05 9.029 31.739 4.507l15.847-8.482-4.362-11.252c-4.373-11.279 1.246-24.014 12.526-28.387l28.462-11.034c11.281-4.372 24.016 1.248 28.387 12.526l57.317 147.849c2.114 5.45 1.972 11.41-.399 16.782zm-374.73-151.658a5.947 5.947 0 0 0-3.033-7.835l-27.919-12.34a5.84 5.84 0 0 0-2.367-.501c-.73 0-1.465.136-2.172.41a5.89 5.89 0 0 0-3.295 3.122v.001L24.5 250.155a5.947 5.947 0 0 0 3.033 7.834l27.919 12.34a5.895 5.895 0 0 0 4.54.092 5.894 5.894 0 0 0 3.295-3.123zm7.841 218.93 18.283-31.641c3.013-6.922.216-15.057-6.457-18.618-7.075-3.776-15.906-1.104-19.684 5.96l-13.898 25.984c-1.819 3.403-2.199 7.333-1.067 11.066 1.131 3.733 3.628 6.792 7.031 8.611 5.067 2.711 11.275 2.139 15.792-1.362zm34.766 30.473 20.202-39.122c1.219-6.201-1.789-12.699-7.372-15.679-5.115-2.731-11.364-2.129-15.887 1.432l-22.629 39.738c-1.819 3.402-2.198 7.332-1.066 11.065 1.131 3.734 3.629 6.793 7.031 8.612 7.059 3.777 15.905 1.064 19.721-6.046zm40.891 15.939 17.913-34.427c1.214-6.199-1.793-12.692-7.374-15.67-5.564-2.968-12.591-1.9-17.065 2.482l-19.516 37.794c-.38 5.682 2.584 11.136 7.633 13.836 6.281 3.36 14.11 1.62 18.409-4.015zm41.771 15.141 13.326-24.917c2.624-4.905 2.168-11-1.16-15.527a14.25 14.25 0 0 0-4.803-4.151c-5.562-2.971-12.594-1.897-17.071 2.495l-17.564 33.758c-.592 5.859 2.364 11.509 7.594 14.308 3.402 1.818 7.332 2.198 11.066 1.066s6.792-3.63 8.612-7.032zm41.098-22.999a6071.55 6071.55 0 0 1-10.235-5.944c-.36 3.995-1.485 7.937-3.428 11.571l-7.613 14.234 8.046 4.621c3.061 1.758 6.679 2.184 10.188 1.2 3.63-1.018 6.744-3.477 8.542-6.747 3.676-6.68 1.208-15.175-5.5-18.935zm96.765-93.547a14.366 14.366 0 0 0-5.84-6.228l-75.697-43.146c-12.856-7.327-28.913-.826-47.506 6.701-13.9 5.627-29.525 11.95-45.356 11.952-15.469.001-31.134-6.033-45.602-24.648-1.9-2.438-2.628-5.466-2.043-8.516.588-3.059 2.391-5.603 5.076-7.168 21.345-12.458 39.375-26.058 53.586-40.419a162.978 162.978 0 0 1 11.161-10.301c-16.377-7.199-30.383-3.927-45.067-.484-14.508 3.399-29.507 6.916-44.823-1.552l-17.661-8.148-43.281 97.923c8.769 3.908 14.109 6.237 15.888 6.928 10.667 4.141 13.697 14.326 15.419 22.887 9.271-9.105 23.76-11.599 35.817-5.164 8.932 4.767 14.572 13.432 15.855 22.851a30.526 30.526 0 0 1 19.915 3.079 30.431 30.431 0 0 1 14.953 18.469 30.503 30.503 0 0 1 23.646 2.176 30.425 30.425 0 0 1 14.953 18.467 30.48 30.48 0 0 1 23.65 2.18 30.108 30.108 0 0 1 9.186 7.543l39.834 22.55.014.008c3.187 1.771 6.902 2.182 10.466 1.157 3.604-1.038 6.575-3.399 8.362-6.65 3.654-6.644 1.168-15.121-5.542-18.898l-55.921-31.627c-3.851-2.166-5.216-7.044-3.049-10.895a8 8 0 0 1 10.895-3.049l68.485 38.536.013.007c6.708 3.688 15.17 1.235 18.86-5.475 3.654-6.644 1.168-15.121-5.542-18.898l-.005-.003c-19.359-10.843-35.493-19.896-52.145-29.428A8 8 0 0 1 308.509 278a7.998 7.998 0 0 1 10.917-2.968c16.597 9.501 32.703 18.538 52.034 29.365 3.157 1.767 6.85 2.181 10.398 1.165 3.627-1.038 6.613-3.406 8.407-6.67 2.166-3.94 2.26-8.566.258-12.692zm34.355-23.493-38.861-100.241-14.206 7.604c-15.773 8.208-30.764 2.079-45.26-3.847-19.621-8.021-39.909-16.315-69.156 3.748-6.228 4.256-12.577 9.641-18.882 16.013-13.945 14.093-31.214 27.432-51.395 39.706 20.721 22.293 42.909 13.311 68.357 3.008 20.57-8.327 41.839-16.938 61.433-5.771l75.697 43.146a30.435 30.435 0 0 1 8.118 6.713zm62.725.216-57.317-147.849a5.95 5.95 0 0 0-7.687-3.392l-28.46 11.034a5.948 5.948 0 0 0-3.392 7.686l57.317 147.849c.568 1.465 1.686 2.627 3.147 3.272s3.073.687 4.539.119l28.461-11.034c1.465-.568 2.627-1.686 3.272-3.147s.688-3.073.12-4.538zm-71.717-135.817c-5.224 0-9.485 4.26-9.485 9.485s4.26 9.485 9.485 9.485c5.224 0 9.485-4.261 9.485-9.485s-4.261-9.485-9.485-9.485z" clip-rule="evenodd" fill="#facc14" data-original="#000000" class=""></path></g></svg>